<svg width="25" height="24" viewBox="0 0 25 24" fill="none" xmlns="http://www.w3.org/2000/svg">
<path d="M3.61319 20.87C3.61319 20.87 3.56318 20.87 3.54318 20.87C2.96318 20.82 2.58318 20.1 2.41318 18.74C2.02318 15.97 3.08319 12.75 5.09319 10.56C7.41319 8.04 10.4532 7.35002 12.3232 7.17002V4.76001C12.3232 4.11001 12.6932 3.54002 13.2832 3.27002C13.8732 3.00002 14.5532 3.10001 15.0332 3.54001L21.7732 9.54001C22.1232 9.85001 22.3232 10.29 22.3232 10.75C22.3232 11.22 22.1232 11.66 21.7732 11.98L15.0332 17.97C14.5432 18.4 13.8732 18.5 13.2832 18.24C12.6932 17.97 12.3232 17.4 12.3232 16.75V14.27H12.3132C11.3132 14.27 10.3332 14.45 9.40318 14.79C7.83318 15.38 6.59318 16.29 5.74318 17.49C5.20318 18.25 4.89318 19.03 4.66318 19.6C4.38318 20.3 4.16319 20.86 3.61319 20.86V20.87ZM13.9632 4.13001C13.8732 4.13001 13.7832 4.15001 13.7032 4.19001C13.4732 4.29001 13.3332 4.51002 13.3332 4.77002V7.64002C13.3332 7.91002 13.1232 8.12002 12.8632 8.14002C11.2232 8.23002 8.13319 8.75002 5.84319 11.24C4.01319 13.22 3.06318 16.11 3.41318 18.61C3.45318 18.95 3.53319 19.3 3.61319 19.56C3.65319 19.46 3.70318 19.34 3.74318 19.24C3.99318 18.62 4.32319 17.78 4.93319 16.92C5.60319 15.98 6.86318 14.68 9.06318 13.86C10.2732 13.41 11.5532 13.21 12.8632 13.29C13.1232 13.3 13.3332 13.52 13.3332 13.79V16.75C13.3332 17.01 13.4732 17.22 13.7032 17.33C13.9332 17.43 14.1932 17.4 14.3832 17.23L21.1232 11.24C21.2632 11.12 21.3332 10.95 21.3332 10.76C21.3332 10.58 21.2532 10.41 21.1232 10.29L14.3832 4.29001C14.2632 4.18001 14.1232 4.13001 13.9732 4.13001H13.9632Z" fill="#8798A1"/>
</svg>
