<svg width="16" height="16" viewBox="0 0 16 16" fill="none" xmlns="http://www.w3.org/2000/svg">
<path d="M3.32704 2.65996C3.19442 2.65999 3.06482 2.69958 2.95481 2.77365C2.84481 2.84773 2.75939 2.95293 2.70949 3.0758C2.65958 3.19868 2.64746 3.33365 2.67466 3.46345C2.70186 3.59325 2.76716 3.71199 2.8622 3.80449L7.05751 7.9998L2.8622 12.1951C2.79822 12.2565 2.74713 12.3301 2.71194 12.4115C2.67675 12.493 2.65816 12.5806 2.65726 12.6693C2.65636 12.758 2.67316 12.846 2.70669 12.9281C2.74021 13.0102 2.78979 13.0848 2.85251 13.1475C2.91523 13.2102 2.98983 13.2598 3.07195 13.2933C3.15407 13.3269 3.24205 13.3437 3.33074 13.3428C3.41944 13.3419 3.50706 13.3233 3.58848 13.2881C3.6699 13.2529 3.74348 13.2018 3.80491 13.1378L8.00022 8.94251L12.1955 13.1378C12.257 13.2018 12.3305 13.2529 12.412 13.2881C12.4934 13.3233 12.581 13.3419 12.6697 13.3428C12.7584 13.3437 12.8464 13.3269 12.9285 13.2933C13.0106 13.2598 13.0852 13.2102 13.1479 13.1475C13.2107 13.0848 13.2602 13.0102 13.2938 12.9281C13.3273 12.846 13.3441 12.758 13.3432 12.6693C13.3423 12.5806 13.3237 12.493 13.2885 12.4115C13.2533 12.3301 13.2022 12.2565 13.1382 12.1951L8.94293 7.9998L13.1382 3.80449C13.2346 3.71085 13.3004 3.59029 13.327 3.45861C13.3537 3.32693 13.3399 3.19027 13.2875 3.06655C13.2352 2.94282 13.1467 2.8378 13.0336 2.76525C12.9205 2.6927 12.7882 2.656 12.6539 2.65996C12.4807 2.66512 12.3163 2.7375 12.1955 2.86178L8.00022 7.05709L3.80491 2.86178C3.74278 2.79792 3.66848 2.74715 3.58641 2.71249C3.50433 2.67783 3.41614 2.65996 3.32704 2.65996Z" fill="#8798A1"/>
</svg>
