<svg width="24" height="24" viewBox="0 0 24 24" fill="none" xmlns="http://www.w3.org/2000/svg">
<path d="M8.4666 16.4259C8.20105 16.4259 7.9355 16.328 7.72586 16.1184C7.32055 15.7131 7.32055 15.0422 7.72586 14.6369L15.6364 6.72635C16.0417 6.32104 16.7126 6.32104 17.1179 6.72635C17.5232 7.13166 17.5232 7.80252 17.1179 8.20783L9.20734 16.1184C9.01167 16.328 8.73215 16.4259 8.4666 16.4259Z" fill="#354752"/>
<path d="M16.3772 16.4259C16.1116 16.4259 15.8461 16.328 15.6364 16.1184L7.72586 8.20783C7.32055 7.80252 7.32055 7.13166 7.72586 6.72635C8.13117 6.32104 8.80203 6.32104 9.20734 6.72635L17.1179 14.6369C17.5232 15.0422 17.5232 15.7131 17.1179 16.1184C16.9082 16.328 16.6427 16.4259 16.3772 16.4259Z" fill="#354752"/>
</svg>
