<svg width="20" height="20" viewBox="0 0 20 20" fill="none" xmlns="http://www.w3.org/2000/svg">
<path d="M17 7.9997C16.7348 7.9997 16.4804 8.10506 16.2929 8.2926C16.1054 8.48013 16 8.73449 16 8.9997V12.3897L14.52 10.9097C14.2626 10.6506 13.9564 10.445 13.6192 10.3046C13.2819 10.1643 12.9203 10.0921 12.555 10.0921C12.1897 10.0921 11.8281 10.1643 11.4908 10.3046C11.1536 10.445 10.8474 10.6506 10.59 10.9097L9.89 11.6097L7.41 9.1197C6.88742 8.60125 6.18113 8.31033 5.445 8.31033C4.70887 8.31033 4.00258 8.60125 3.48 9.1197L2 10.5997V4.9997C2 4.73449 2.10536 4.48013 2.29289 4.2926C2.48043 4.10506 2.73478 3.9997 3 3.9997H11C11.2652 3.9997 11.5196 3.89435 11.7071 3.70681C11.8946 3.51927 12 3.26492 12 2.9997C12 2.73449 11.8946 2.48013 11.7071 2.2926C11.5196 2.10506 11.2652 1.9997 11 1.9997H3C2.20435 1.9997 1.44129 2.31578 0.87868 2.87838C0.316071 3.44099 0 4.20405 0 4.9997V16.9997C0 17.7954 0.316071 18.5584 0.87868 19.121C1.44129 19.6836 2.20435 19.9997 3 19.9997H15C15.7956 19.9997 16.5587 19.6836 17.1213 19.121C17.6839 18.5584 18 17.7954 18 16.9997V8.9997C18 8.73449 17.8946 8.48013 17.7071 8.2926C17.5196 8.10506 17.2652 7.9997 17 7.9997ZM3 17.9997C2.73478 17.9997 2.48043 17.8943 2.29289 17.7068C2.10536 17.5193 2 17.2649 2 16.9997V13.4297L4.9 10.5297C5.04691 10.3897 5.24206 10.3116 5.445 10.3116C5.64794 10.3116 5.84309 10.3897 5.99 10.5297L9.16 13.6997L13.45 17.9997H3ZM16 16.9997C15.9986 17.1911 15.9354 17.377 15.82 17.5297L11.31 12.9997L12.01 12.2997C12.1562 12.1544 12.3539 12.0728 12.56 12.0728C12.7661 12.0728 12.9638 12.1544 13.11 12.2997L16 15.2197V16.9997ZM18.41 2.9997L19.71 1.7097C19.8962 1.52234 20.0008 1.26889 20.0008 1.0047C20.0008 0.740519 19.8962 0.487067 19.71 0.299705C19.617 0.205976 19.5064 0.131582 19.3846 0.0808132C19.2627 0.0300445 19.132 0.00390625 19 0.00390625C18.868 0.00390625 18.7373 0.0300445 18.6154 0.0808132C18.4936 0.131582 18.383 0.205976 18.29 0.299705L17 1.5897L15.71 0.299705C15.617 0.205976 15.5064 0.131582 15.3846 0.0808132C15.2627 0.0300445 15.132 0.00390625 15 0.00390625C14.868 0.00390625 14.7373 0.0300445 14.6154 0.0808132C14.4936 0.131582 14.383 0.205976 14.29 0.299705C14.1038 0.487067 13.9992 0.740519 13.9992 1.0047C13.9992 1.26889 14.1038 1.52234 14.29 1.7097L15.59 2.9997L14.29 4.2997C14.1038 4.48707 13.9992 4.74052 13.9992 5.0047C13.9992 5.26889 14.1038 5.52234 14.29 5.7097C14.383 5.80343 14.4936 5.87783 14.6154 5.9286C14.7373 5.97936 14.868 6.0055 15 6.0055C15.132 6.0055 15.2627 5.97936 15.3846 5.9286C15.5064 5.87783 15.617 5.80343 15.71 5.7097L17 4.4197L18.29 5.7097C18.383 5.80343 18.4936 5.87783 18.6154 5.9286C18.7373 5.97936 18.868 6.0055 19 6.0055C19.132 6.0055 19.2627 5.97936 19.3846 5.9286C19.5064 5.87783 19.617 5.80343 19.71 5.7097C19.8962 5.52234 20.0008 5.26889 20.0008 5.0047C20.0008 4.74052 19.8962 4.48707 19.71 4.2997L18.41 2.9997Z" fill="#BF283A"/>
</svg>
