<svg width="25" height="24" viewBox="0 0 25 24" fill="none" xmlns="http://www.w3.org/2000/svg">
<path d="M19.25 3.50098C21.0449 3.50098 22.5 4.95605 22.5 6.75098V17.2536C22.5 19.0485 21.0449 20.5036 19.25 20.5036H5.75C3.95507 20.5036 2.5 19.0485 2.5 17.2536V6.75098C2.5 4.95605 3.95507 3.50098 5.75 3.50098H19.25ZM19.25 5.00098H5.75C4.7835 5.00098 4 5.78448 4 6.75098V17.2536C4 18.2201 4.7835 19.0036 5.75 19.0036H19.25C20.2165 19.0036 21 18.2201 21 17.2536V6.75098C21 5.78448 20.2165 5.00098 19.25 5.00098ZM8.5146 8.87237C9.1115 8.87237 9.53353 8.9537 10.0168 9.18576C10.3279 9.33519 10.459 9.70856 10.3096 10.0197C10.1602 10.3309 9.78682 10.462 9.47566 10.3126C9.17583 10.1686 8.93601 10.1224 8.5146 10.1224C7.64789 10.1224 7.01104 10.9187 7.01104 11.9947C7.01104 13.0717 7.64873 13.8707 8.5146 13.8707C8.94322 13.8707 9.30607 13.6908 9.49484 13.3699L9.501 13.355V12.621L9.12522 12.6216C8.81142 12.6216 8.55164 12.3904 8.507 12.089L8.50022 11.9966C8.50022 11.6828 8.73148 11.423 9.03286 11.3784L9.12522 11.3716H10.1268C10.4406 11.3716 10.7004 11.6029 10.745 11.9043L10.7518 11.9966L10.7505 13.5443L10.7441 13.5996L10.723 13.6895L10.7025 13.7446C10.3261 14.6348 9.46156 15.1207 8.5146 15.1207C6.88858 15.1207 5.76104 13.708 5.76104 11.9947C5.76104 10.2821 6.88839 8.87237 8.5146 8.87237ZM13.1289 8.99437C13.4427 8.99437 13.7025 9.22563 13.7472 9.52701L13.7539 9.61937V14.3815C13.7539 14.7267 13.4741 15.0065 13.1289 15.0065C12.8151 15.0065 12.5554 14.7752 12.5107 14.4739L12.5039 14.3815V9.61937C12.5039 9.27419 12.7838 8.99437 13.1289 8.99437ZM16.1248 8.99437L18.1222 9.00127C18.4673 9.00246 18.7462 9.28325 18.745 9.62842C18.7439 9.94222 18.5118 10.2012 18.2102 10.2448L18.1178 10.2513L16.747 10.246V12L17.87 12.0008C18.1838 12.0008 18.4436 12.2321 18.4882 12.5335L18.495 12.6258C18.495 12.9396 18.2637 13.1994 17.9624 13.2441L17.87 13.2508L16.747 13.25L16.7476 14.3654C16.7476 14.6792 16.5163 14.939 16.215 14.9836L16.1226 14.9904C15.8088 14.9904 15.549 14.7591 15.5044 14.4578L15.4976 14.3654V9.61721C15.4987 9.30342 15.7308 9.04443 16.0324 9.00083L16.1248 8.99437Z" fill="#354752"/>
</svg>
