<svg width="18" height="20" viewBox="0 0 18 20" fill="none" xmlns="http://www.w3.org/2000/svg">
<path d="M8 9.89996V15C8 15.2652 8.10536 15.5195 8.29289 15.7071C8.48043 15.8946 8.73478 16 9 16C9.26522 16 9.51957 15.8946 9.70711 15.7071C9.89464 15.5195 10 15.2652 10 15V9.89996C11.214 9.65214 12.2928 8.96237 13.0272 7.96437C13.7616 6.96637 14.0992 5.73123 13.9747 4.49843C13.8501 3.26563 13.2723 2.12298 12.3532 1.29202C11.434 0.461057 10.2391 0.000976562 9 0.000976562C7.76092 0.000976562 6.56598 0.461057 5.64685 1.29202C4.72771 2.12298 4.14986 3.26563 4.02532 4.49843C3.90078 5.73123 4.23843 6.96637 4.9728 7.96437C5.70718 8.96237 6.78596 9.65214 8 9.89996ZM9 1.99996C9.59334 1.99996 10.1734 2.1759 10.6667 2.50555C11.1601 2.83519 11.5446 3.30373 11.7716 3.85191C11.9987 4.40008 12.0581 5.00328 11.9424 5.58523C11.8266 6.16717 11.5409 6.70172 11.1213 7.12128C10.7018 7.54083 10.1672 7.82656 9.58527 7.94231C9.00333 8.05807 8.40013 7.99866 7.85195 7.7716C7.30377 7.54453 6.83524 7.16001 6.50559 6.66667C6.17595 6.17332 6 5.5933 6 4.99996C6 4.20431 6.31607 3.44125 6.87868 2.87864C7.44129 2.31603 8.20435 1.99996 9 1.99996ZM13.21 12.42C13.0787 12.3924 12.9432 12.3909 12.8113 12.4157C12.6795 12.4405 12.5537 12.491 12.4414 12.5644C12.329 12.6377 12.2322 12.7325 12.1565 12.8433C12.0808 12.954 12.0276 13.0786 12 13.21C11.9724 13.3413 11.971 13.4767 11.9958 13.6086C12.0205 13.7405 12.071 13.8662 12.1444 13.9786C12.2178 14.0909 12.3125 14.1877 12.4233 14.2635C12.5341 14.3392 12.6587 14.3924 12.79 14.42C15.06 14.87 16 15.68 16 16C16 16.58 13.55 18 9 18C4.45 18 2 16.58 2 16C2 15.68 2.94 14.87 5.21 14.38C5.34132 14.3524 5.46593 14.2992 5.5767 14.2235C5.68747 14.1477 5.78224 14.0509 5.8556 13.9386C5.92896 13.8262 5.97947 13.7005 6.00424 13.5686C6.02902 13.4367 6.02758 13.3013 6 13.17C5.97242 13.0386 5.91925 12.914 5.84352 12.8033C5.76778 12.6925 5.67097 12.5977 5.55861 12.5244C5.44626 12.451 5.32055 12.4005 5.18867 12.3757C5.05679 12.3509 4.92132 12.3524 4.79 12.38C1.75 13.08 0 14.39 0 16C0 18.63 4.53 20 9 20C13.47 20 18 18.63 18 16C18 14.39 16.25 13.08 13.21 12.42Z" fill="#354752"/>
</svg>
