<svg width="40" height="40" viewBox="0 0 40 40" fill="none" xmlns="http://www.w3.org/2000/svg">
<path d="M37.9745 19.8183C37.9394 20.0302 37.8673 20.2348 37.7612 20.423C37.5745 20.8099 37.3658 21.1865 37.1361 21.5509C36.6508 22.2807 36.2222 22.8149 36.1448 22.9105C36.0107 23.0766 35.4172 23.8073 34.4132 24.8525C33.6415 25.656 33.002 26.255 32.6835 26.548C31.8624 27.3049 31.0805 27.9604 30.3705 28.5195C29.5974 29.1284 28.8215 29.6617 27.2698 30.7283C27.2698 30.7283 26.6934 31.1246 24.6275 32.2805C24.4199 32.3982 24.1978 32.4898 23.9665 32.5531C23.7444 32.6174 23.5142 32.6512 23.2825 32.6535C22.5603 32.6393 22.0343 32.1069 21.9477 32.0189C21.5029 31.5689 21.405 31.0611 21.2538 30.2787C21.1598 29.7899 21.1545 29.2916 21.1364 28.5979C21.1291 28.3115 21.1291 28.0989 21.1291 28.0066C21.1295 27.1337 21.1173 27.2421 21.1031 25.2369C21.086 22.8069 21.088 20.3869 21.0904 19.5277C21.0929 18.415 21.0943 17.8584 21.0982 17.5844C21.1011 17.3917 21.1046 17.1962 21.1026 16.904C21.0996 16.4673 21.0869 16.3498 21.0924 16.0783C21.0982 15.7648 21.1222 15.5367 21.1506 15.2686C21.2225 14.5974 21.2611 14.232 21.4167 13.8063C21.4258 13.782 21.4351 13.7573 21.4446 13.7321C21.4476 13.7249 21.45 13.7178 21.4535 13.7107C21.6097 13.3163 21.7588 13.1407 21.8199 13.0737C21.9862 12.8762 22.2038 12.7257 22.4501 12.6377C22.5588 12.601 22.9336 12.474 23.3099 12.6258C23.4668 12.69 23.6031 12.7942 23.7042 12.9274C23.8306 13.1014 23.9358 13.2889 24.0179 13.4864C24.2009 13.8812 24.2415 14.1738 24.3183 14.5753C24.3472 14.7257 24.4622 15.1956 24.692 16.1362C24.8721 16.8721 25.0615 17.648 25.4593 18.5581C25.7201 19.172 26.0552 19.7534 26.4574 20.2902C26.8854 20.8554 27.1894 21.0975 27.4678 21.2626C27.7424 21.4223 28.0401 21.5408 28.351 21.6142C28.5463 21.6646 29.1799 21.8145 30.1326 21.7046C31.5805 21.5367 32.6638 20.8959 33.2299 20.5609C33.4305 20.442 33.6991 20.2726 34.1175 20.0081C34.573 19.7203 35.0364 19.4449 35.4898 19.1538C35.8295 18.9354 36.032 18.7998 36.3681 18.6923C36.5805 18.6247 36.8134 18.5536 37.1094 18.5986C37.2352 18.6184 37.61 18.6751 37.8371 18.9829C37.9362 19.1209 37.9924 19.2837 37.999 19.4519C38.003 19.5745 37.9948 19.6973 37.9745 19.8183Z" fill="#BF283A"/>
<path d="M11.4639 20.9718C11.4035 21.1983 11.0156 22.7473 12.0632 23.968C12.8363 24.8683 13.8975 25.0156 14.5117 25.1015C14.954 25.1629 15.5729 25.2402 16.111 24.8908C16.2224 24.8188 16.7014 24.4971 16.6776 24.0327C16.6749 23.9931 16.6545 23.6846 16.4188 23.5142C16.234 23.3801 15.8596 23.3854 15.1177 23.4006C15.02 23.4102 14.9213 23.3992 14.8283 23.3682C14.564 23.2691 14.3942 22.9778 14.3622 22.7209C14.3459 22.5775 14.3646 22.4325 14.4166 22.2974C14.4687 22.1623 14.5527 22.0411 14.6619 21.9434C14.9445 21.6984 15.2353 21.7915 16.2815 21.7975C16.7564 21.8001 17.5269 21.7856 17.9583 21.775C17.9583 21.775 18.8238 21.7532 19.3293 22.0293C19.3761 22.0549 19.4215 22.0829 19.4652 22.1132C19.5373 22.166 19.6052 22.2241 19.6683 22.2869C19.845 22.4747 19.9419 22.7207 19.9394 22.9752V31.0893C19.9394 32.5584 18.3075 33.4732 16.9963 32.744C14.4723 31.3429 12.0812 29.7268 9.85106 27.9147C6.63413 25.2963 4.2678 23.3273 3.01908 20.4724C3.0184 20.4711 3.01772 20.4704 3.01772 20.4691C2.79868 19.9683 2.61836 19.4523 2.47827 18.9254C2.42256 18.7173 2.35055 18.4505 2.27989 18.1347C2.2269 17.8983 2.1739 17.634 2.12974 17.3467C1.89263 15.8394 1.86546 13.6979 3.06731 11.5537C3.17941 11.3543 5.07492 8.0925 8.8014 7.21728C12.3091 6.39424 16.3209 7.94784 19.0664 11.2255C19.1031 11.2691 19.1391 11.3127 19.1751 11.3569C19.1782 11.3605 19.1812 11.3642 19.1839 11.3681C19.315 11.528 19.4423 11.6918 19.5657 11.8596C19.7786 12.1481 19.9059 12.4878 19.934 12.8418V12.8431C19.9345 12.8457 19.9347 12.8484 19.9346 12.8511C19.938 12.8947 19.9394 12.9376 19.9394 12.9812V19.0701C19.9416 19.2636 19.8866 19.4536 19.781 19.6177C19.6754 19.7817 19.5236 19.9128 19.3436 19.9955C19.3232 20.0047 19.3096 20.01 19.2926 20.0166C18.7172 20.2359 17.8387 20.0417 17.3855 19.5542C17.3162 19.4796 17.2619 19.4043 17.1151 19.257C16.971 19.1082 16.8134 18.9723 16.6443 18.8508C15.8617 18.3118 14.6761 18.2127 13.6788 18.5588C11.9844 19.1474 11.5135 20.7868 11.4639 20.9718Z" fill="#13968E"/>
<path d="M37.4946 14.1777C37.3496 15.3671 36.8452 16.4879 36.045 17.3985C35.2448 18.3091 34.1849 18.9685 32.9992 19.2934C31.8136 19.6183 30.5554 19.594 29.384 19.2237C28.2125 18.8534 27.1803 18.1536 26.4179 17.2128C25.6555 16.2721 25.1972 15.1327 25.1009 13.9387C25.0045 12.7446 25.2746 11.5497 25.8768 10.5049C26.4791 9.46013 27.3865 8.61245 28.4843 8.06909C29.5821 7.52573 30.8209 7.31109 32.0442 7.45231C32.8576 7.54289 33.6445 7.78914 34.3595 8.17685C35.0745 8.56456 35.7035 9.08606 36.2102 9.71128C36.7168 10.3365 37.0912 11.0531 37.3116 11.8196C37.5321 12.5862 37.5943 13.3876 37.4946 14.1777Z" fill="#13968E"/>
<path opacity="0.17" d="M25.1269 12.7515C25.2194 11.9845 25.4626 11.2419 25.8432 10.5641C25.852 11.2775 25.8834 11.9899 25.9642 12.6992C26.0802 13.4369 26.2744 14.161 26.5435 14.86C26.7415 15.2748 26.9763 15.6721 27.2451 16.0474C27.4596 16.2933 27.693 16.523 27.9434 16.7343C28.1985 16.9049 28.4665 17.0566 28.7451 17.1882C29.0621 17.2997 29.3877 17.3867 29.7188 17.4484C30.0392 17.4732 30.3612 17.474 30.6817 17.4507C31.1322 17.3627 31.5737 17.2357 32.0009 17.0711C32.7011 16.7614 33.3763 16.4023 34.0668 16.0726C34.8947 15.6773 35.7509 15.3057 36.6439 15.0721C36.8788 15.0105 37.1168 14.9564 37.3578 14.9099C36.9794 16.4067 36.028 17.7067 34.6977 18.5451C33.3674 19.3834 31.7583 19.6969 30.1985 19.4217C28.6387 19.1464 27.2455 18.3031 26.3031 17.0637C25.3607 15.8243 24.94 14.2821 25.1267 12.7515H25.1269Z" fill="white"/>
<path opacity="0.17" d="M37.9985 19.452C37.6471 19.54 37.3012 19.6479 36.9626 19.775C35.4223 20.453 33.9726 21.3598 32.3216 21.7712C31.4908 21.9866 30.6297 22.071 29.7714 22.021C28.9264 21.9601 28.0774 21.824 27.2881 21.5158C26.8101 21.3293 26.3311 21.1371 25.8886 20.8783C25.4525 20.6151 25.039 20.318 24.6521 19.9901C24.0213 19.4701 23.4934 18.8155 23.0437 18.1457C22.5857 17.4645 22.2481 16.7033 21.9609 15.9416C21.7237 15.3023 21.5502 14.6423 21.4427 13.9707C21.4334 13.916 21.4246 13.8608 21.4163 13.8061C21.4253 13.7818 21.4346 13.7571 21.4442 13.7319C21.4471 13.7248 21.4496 13.7177 21.453 13.7105C21.6093 13.3161 21.7583 13.1405 21.8195 13.0735C21.9857 12.876 22.2033 12.7255 22.4497 12.6375C22.5584 12.6009 22.9331 12.4739 23.3094 12.6257C23.4664 12.6899 23.6026 12.794 23.7038 12.9273C23.8301 13.1012 23.9353 13.2888 24.0174 13.4862C24.2004 13.8811 24.241 14.1736 24.3179 14.5752C24.3468 14.7255 24.4617 15.1955 24.6916 16.136C24.8716 16.872 25.061 17.6479 25.4588 18.558C25.7197 19.1718 26.0548 19.7533 26.457 20.2901C26.885 20.8552 27.1889 21.0974 27.4674 21.2625C27.7419 21.4221 28.0397 21.5407 28.3506 21.6141C28.5458 21.6645 29.1794 21.8143 30.1322 21.7044C31.58 21.5365 32.6633 20.8957 33.2294 20.5608C33.4301 20.4419 33.6987 20.2725 34.117 20.008C34.5725 19.7202 35.036 19.4447 35.4894 19.1536C35.8291 18.9352 36.0315 18.7996 36.3677 18.6921C36.5801 18.6246 36.813 18.5534 37.109 18.5984C37.2347 18.6182 37.6096 18.675 37.8366 18.9828C37.9358 19.1208 37.992 19.2837 37.9985 19.452Z" fill="white"/>
<path opacity="0.17" d="M19.7526 12.17C18.8404 11.4474 17.8529 10.8197 16.806 10.2974C15.6324 9.77758 14.3972 9.40085 13.1285 9.17579C12.1191 9.04252 11.0967 9.02965 10.0841 9.13748C9.28175 9.28939 8.49974 9.52939 7.75309 9.85285C7.00511 10.2358 6.30056 10.6941 5.65105 11.2202C5.05171 11.768 4.50816 12.3708 4.02798 13.0202C3.4776 13.8722 3.01192 14.7733 2.63726 15.7112C2.44635 16.2489 2.27853 16.7945 2.12974 17.3467C1.89263 15.8394 1.86546 13.6979 3.06731 11.5537C3.17941 11.3543 5.07492 8.0925 8.8014 7.21728C12.3091 6.39424 16.3209 7.94784 19.0664 11.2255C19.1031 11.2691 19.1391 11.3127 19.1751 11.3569C19.1782 11.3605 19.1812 11.3642 19.1839 11.3681C19.315 11.528 19.4423 11.6918 19.5657 11.8596C19.6379 11.9571 19.7005 12.0611 19.7526 12.17Z" fill="white"/>
</svg>
