<svg width="24" height="24" viewBox="0 0 24 24" fill="none" xmlns="http://www.w3.org/2000/svg">
<path fill-rule="evenodd" clip-rule="evenodd" d="M15.6438 19.2984C14.734 20.2961 13.6744 21.1896 12.4846 21.9123C12.3381 22.0197 12.1396 22.0327 11.9768 21.9286C10.219 20.8104 8.74276 19.4676 7.58228 18.0077C5.98072 15.9992 4.97323 13.7727 4.62818 11.6275C4.27662 9.45299 4.60539 7.35989 5.68775 5.65905C6.11418 4.98685 6.65943 4.37487 7.32349 3.8459C8.85018 2.63008 10.5933 1.98717 12.3316 2.00019C14.0048 2.01321 15.6568 2.63659 17.0842 3.9403C17.5855 4.39603 18.0071 4.91849 18.3521 5.48489C19.5159 7.40221 19.7665 9.84687 19.2555 12.3241C18.7509 14.772 17.4976 17.259 15.6438 19.2935V19.2984ZM11.9996 5.86738C14.0634 5.86738 15.735 7.54056 15.735 9.60273C15.735 11.6665 14.0618 13.3381 11.9996 13.3381C9.9358 13.3381 8.26425 11.6665 8.26425 9.60273C8.26262 7.53893 9.9358 5.86738 11.9996 5.86738Z" fill="#FF0000"/>
</svg>
