<svg width="25" height="24" viewBox="0 0 25 24" fill="none" xmlns="http://www.w3.org/2000/svg">
<path d="M24.5 12V14.1C24.5 16.5853 22.4853 18.6 20 18.6C18.195 18.6 16.6382 17.5373 15.9212 16.0034C14.9395 17.2262 13.508 18 11.9 18C8.89084 18 6.5 15.2904 6.5 12C6.5 8.70962 8.89084 6 11.9 6C13.2908 6 14.5495 6.57883 15.5012 7.5263L15.5 6.9C15.5 6.40295 15.903 6 16.4 6C16.8556 6 17.2322 6.33858 17.2918 6.77788L17.3 6.9V14.1C17.3 15.5911 18.5089 16.8 20 16.8C21.4291 16.8 22.5987 15.6898 22.6938 14.2848L22.7 14.1V12C22.7 6.3667 18.1333 1.8 12.5 1.8C6.8667 1.8 2.3 6.3667 2.3 12C2.3 17.6333 6.8667 22.2 12.5 22.2C13.7396 22.2 14.9474 21.9792 16.0822 21.5534C16.5476 21.379 17.0664 21.6146 17.241 22.08C17.4156 22.5454 17.1798 23.0642 16.7144 23.2388C15.3782 23.7401 13.9563 24 12.5 24C5.87258 24 0.5 18.6274 0.5 12C0.5 5.37258 5.87258 0 12.5 0C19.015 0 24.3175 5.192 24.4954 11.6641L24.5 12V14.1V12ZM11.9 7.8C9.93859 7.8 8.3 9.65712 8.3 12C8.3 14.3429 9.93859 16.2 11.9 16.2C13.8614 16.2 15.5 14.3429 15.5 12C15.5 9.65712 13.8614 7.8 11.9 7.8Z" fill="#354752"/>
</svg>
