<svg width="41" height="41" viewBox="0 0 41 41" fill="none" xmlns="http://www.w3.org/2000/svg">
<circle cx="20.7734" cy="20.54" r="20" fill="#F4F7FB"/>
<path d="M30.2734 19.67L16.2734 11.59C16.1214 11.5023 15.949 11.4561 15.7734 11.4561C15.5979 11.4561 15.4255 11.5023 15.2734 11.59C15.1208 11.6781 14.9942 11.805 14.9064 11.9578C14.8186 12.1106 14.7727 12.2838 14.7734 12.46V28.62C14.7727 28.7962 14.8186 28.9695 14.9064 29.1223C14.9942 29.2751 15.1208 29.4019 15.2734 29.49C15.4255 29.5778 15.5979 29.624 15.7734 29.624C15.949 29.624 16.1214 29.5778 16.2734 29.49L30.2734 21.41C30.4273 21.3228 30.5554 21.1963 30.6444 21.0435C30.7335 20.8907 30.7804 20.7169 30.7804 20.54C30.7804 20.3631 30.7335 20.1894 30.6444 20.0366C30.5554 19.8837 30.4273 19.7572 30.2734 19.67ZM16.7734 26.89V14.19L27.7734 20.54L16.7734 26.89Z" fill="#607079"/>
</svg>
