<svg width="64" height="64" viewBox="0 0 64 64" fill="none" xmlns="http://www.w3.org/2000/svg">
<circle opacity="0.3" cx="32" cy="32" r="29" fill="white"/>
<g opacity="0.3" filter="url(#filter0_d_1205_15208)">
<circle cx="32" cy="32" r="24" fill="white"/>
</g>
<path d="M43.7806 30.7124C38.2943 35.6664 37.1164 32.3555 32 19H31.9998C26.8831 32.3555 25.7055 35.6664 20.2192 30.7124C18.3693 38.8487 23.4833 43.5442 23.4833 43.5442H40.5163C40.5163 43.5442 45.6302 38.8487 43.7806 30.7124Z" fill="#C26B1B"/>
<path d="M43.9833 31.7556C38.439 37.1553 35.8 32.672 32.0002 21.9245C28.2 32.6721 25.561 37.1553 20.0168 31.7556C18.839 39.7555 23.5043 44.3514 23.5043 44.3514L32.0002 44.3111L40.4957 44.3514C40.4957 44.3514 45.1612 39.7555 43.9833 31.7556Z" fill="#D27722"/>
<path d="M40.5104 44.3111C40.5104 44.6916 36.7002 45 32 45C27.3 45 23.4897 44.6916 23.4897 44.3111C23.4897 43.9306 27.3 43.6222 32 43.6222C36.7002 43.6222 40.5104 43.9306 40.5104 44.3111ZM36.1447 36.8443C36.1447 39.1334 34.289 40.9887 32.0001 40.9887C29.7113 40.9887 27.8557 39.1334 27.8557 36.8443C27.8557 34.5554 29.7113 32.6999 32.0001 32.6999C34.289 32.6998 36.1447 34.5553 36.1447 36.8443Z" fill="#C26B1B"/>
<path d="M35.5441 36.8443C35.5441 38.8021 33.9572 40.3887 31.9996 40.3887C30.0418 40.3887 28.4551 38.8021 28.4551 36.8443C28.4551 34.8864 30.0418 33.2997 31.9996 33.2997C33.9572 33.2997 35.5441 34.8864 35.5441 36.8443Z" fill="white"/>
<path d="M34.5066 34.3377H29.4932V39.3512H34.5066V34.3377Z" fill="white"/>
<path d="M35.5449 36.8443L32 40.3894L28.4551 36.8443L32 33.2995L35.5449 36.8443Z" fill="white"/>
<path d="M35.2751 38.2006L30.6433 40.1193L28.7251 35.4879L33.3569 33.5692L35.2751 38.2006Z" fill="white"/>
<path d="M33.3569 40.1193L28.7251 38.2006L30.6433 33.5692L35.2751 35.4875L33.3569 40.1193Z" fill="white"/>
<path d="M31.9998 39.562L30.0782 38.766L29.2822 36.8443L30.0782 34.9223L32 34.1265L33.9218 34.9223L34.7178 36.8443L33.9218 38.766L31.9998 39.562Z" fill="white"/>
<defs>
<filter id="filter0_d_1205_15208" x="0" y="0" width="64" height="64" filterUnits="userSpaceOnUse" color-interpolation-filters="sRGB">
<feFlood flood-opacity="0" result="BackgroundImageFix"/>
<feColorMatrix in="SourceAlpha" type="matrix" values="0 0 0 0 0 0 0 0 0 0 0 0 0 0 0 0 0 0 127 0" result="hardAlpha"/>
<feOffset/>
<feGaussianBlur stdDeviation="4"/>
<feComposite in2="hardAlpha" operator="out"/>
<feColorMatrix type="matrix" values="0 0 0 0 0 0 0 0 0 0 0 0 0 0 0 0 0 0 0.25 0"/>
<feBlend mode="normal" in2="BackgroundImageFix" result="effect1_dropShadow_1205_15208"/>
<feBlend mode="normal" in="SourceGraphic" in2="effect1_dropShadow_1205_15208" result="shape"/>
</filter>
</defs>
</svg>
