<svg width="10" height="10" viewBox="0 0 10 10" fill="none" xmlns="http://www.w3.org/2000/svg">
<path d="M8.5 0H1.5C1.10218 0 0.720644 0.158035 0.43934 0.43934C0.158035 0.720644 0 1.10218 0 1.5V8.5C0 8.89782 0.158035 9.27936 0.43934 9.56066C0.720644 9.84196 1.10218 10 1.5 10H8.5C8.58224 9.99885 8.66422 9.99049 8.745 9.975L8.895 9.94H8.93H8.955L9.14 9.87L9.205 9.835C9.255 9.805 9.31 9.78 9.36 9.745C9.42676 9.69588 9.49023 9.64243 9.55 9.585L9.585 9.54C9.63409 9.49026 9.67923 9.43676 9.72 9.38L9.765 9.315C9.79992 9.25933 9.83003 9.20079 9.855 9.14C9.86872 9.11601 9.88043 9.09092 9.89 9.065C9.915 9.005 9.93 8.94 9.95 8.875V8.8C9.97835 8.7023 9.99513 8.60161 10 8.5V1.5C10 1.10218 9.84196 0.720644 9.56066 0.43934C9.27936 0.158035 8.89782 0 8.5 0ZM1.5 9C1.36739 9 1.24021 8.94732 1.14645 8.85355C1.05268 8.75979 1 8.63261 1 8.5V6.345L2.645 4.695C2.69148 4.64814 2.74678 4.61094 2.80771 4.58555C2.86864 4.56017 2.93399 4.5471 3 4.5471C3.06601 4.5471 3.13136 4.56017 3.19229 4.58555C3.25322 4.61094 3.30852 4.64814 3.355 4.695L7.655 9H1.5ZM9 8.5C8.99953 8.56164 8.98766 8.62267 8.965 8.68C8.95357 8.70437 8.9402 8.72778 8.925 8.75C8.91162 8.77117 8.89657 8.79123 8.88 8.81L6.205 6.135L6.645 5.695C6.69148 5.64814 6.74678 5.61094 6.80771 5.58555C6.86864 5.56017 6.93399 5.5471 7 5.5471C7.06601 5.5471 7.13136 5.56017 7.19229 5.58555C7.25322 5.61094 7.30852 5.64814 7.355 5.695L9 7.345V8.5ZM9 5.93L8.06 5C7.77386 4.7285 7.39445 4.57714 7 4.57714C6.60555 4.57714 6.22614 4.7285 5.94 5L5.5 5.44L4.06 4C3.77386 3.7285 3.39445 3.57714 3 3.57714C2.60555 3.57714 2.22614 3.7285 1.94 4L1 4.93V1.5C1 1.36739 1.05268 1.24021 1.14645 1.14645C1.24021 1.05268 1.36739 1 1.5 1H8.5C8.63261 1 8.75979 1.05268 8.85355 1.14645C8.94732 1.24021 9 1.36739 9 1.5V5.93ZM5.75 2C5.60166 2 5.45666 2.04399 5.33332 2.1264C5.20999 2.20881 5.11386 2.32594 5.05709 2.46299C5.00032 2.60003 4.98547 2.75083 5.01441 2.89632C5.04335 3.0418 5.11478 3.17544 5.21967 3.28033C5.32456 3.38522 5.4582 3.45665 5.60368 3.48559C5.74917 3.51453 5.89997 3.49968 6.03701 3.44291C6.17406 3.38614 6.29119 3.29001 6.3736 3.16668C6.45601 3.04334 6.5 2.89834 6.5 2.75C6.5 2.55109 6.42098 2.36032 6.28033 2.21967C6.13968 2.07902 5.94891 2 5.75 2Z" fill="#354752"/>
</svg>
