<svg width="12" height="12" viewBox="0 0 12 12" fill="none" xmlns="http://www.w3.org/2000/svg">
<path d="M6 3.5C5.86739 3.5 5.74022 3.55268 5.64645 3.64645C5.55268 3.74021 5.5 3.86739 5.5 4V6C5.5 6.13261 5.55268 6.25979 5.64645 6.35355C5.74022 6.44732 5.86739 6.5 6 6.5C6.13261 6.5 6.25979 6.44732 6.35356 6.35355C6.44732 6.25979 6.5 6.13261 6.5 6V4C6.5 3.86739 6.44732 3.74021 6.35356 3.64645C6.25979 3.55268 6.13261 3.5 6 3.5ZM6.46 7.81C6.44906 7.77814 6.43392 7.74787 6.415 7.72L6.355 7.645C6.28469 7.57562 6.1954 7.52862 6.09841 7.50994C6.00141 7.49125 5.90106 7.50171 5.81 7.54C5.74941 7.56532 5.6936 7.60083 5.645 7.645C5.59866 7.69172 5.562 7.74713 5.53712 7.80805C5.51223 7.86897 5.49962 7.9342 5.5 8C5.50079 8.06534 5.51438 8.12989 5.54 8.19C5.56246 8.25205 5.59829 8.3084 5.64494 8.35506C5.6916 8.40172 5.74795 8.43754 5.81 8.46C5.86985 8.48645 5.93457 8.50012 6 8.50012C6.06544 8.50012 6.13015 8.48645 6.19 8.46C6.25205 8.43754 6.3084 8.40172 6.35506 8.35506C6.40172 8.3084 6.43755 8.25205 6.46 8.19C6.48562 8.12989 6.49921 8.06534 6.5 8C6.50246 7.96671 6.50246 7.93329 6.5 7.9C6.49139 7.86812 6.4779 7.83776 6.46 7.81ZM6 1C5.0111 1 4.0444 1.29324 3.22215 1.84265C2.39991 2.39206 1.75904 3.17295 1.3806 4.08658C1.00217 5.00021 0.90315 6.00555 1.09608 6.97545C1.289 7.94536 1.76521 8.83627 2.46447 9.53553C3.16373 10.2348 4.05465 10.711 5.02455 10.9039C5.99446 11.0969 6.99979 10.9978 7.91342 10.6194C8.82705 10.241 9.60794 9.6001 10.1573 8.77785C10.7068 7.95561 11 6.98891 11 6C11 5.34339 10.8707 4.69321 10.6194 4.08658C10.3681 3.47995 9.99983 2.92876 9.53553 2.46447C9.07124 2.00017 8.52005 1.63188 7.91342 1.3806C7.30679 1.12933 6.65661 1 6 1ZM6 10C5.20888 10 4.43552 9.7654 3.77772 9.32588C3.11992 8.88635 2.60723 8.26164 2.30448 7.53073C2.00173 6.79983 1.92252 5.99556 2.07686 5.21964C2.2312 4.44371 2.61216 3.73098 3.17157 3.17157C3.73098 2.61216 4.44372 2.2312 5.21964 2.07686C5.99556 1.92252 6.79983 2.00173 7.53074 2.30448C8.26164 2.60723 8.88635 3.11992 9.32588 3.77772C9.7654 4.43552 10 5.20887 10 6C10 7.06087 9.57857 8.07828 8.82843 8.82843C8.07828 9.57857 7.06087 10 6 10Z" fill="white"/>
</svg>
