<svg width="25" height="24" viewBox="0 0 25 24" fill="none" xmlns="http://www.w3.org/2000/svg">
<path d="M6.36366 21C6.29841 21.0003 6.23385 20.9874 6.17372 20.962C6.0821 20.9244 6.00369 20.8604 5.9485 20.7781C5.89331 20.6959 5.86376 20.5991 5.86366 20.5V17.21C5.18905 16.7906 4.63285 16.2057 4.24782 15.5109C3.86278 14.816 3.66172 14.0344 3.66371 13.24V7.73099C3.66318 6.47851 4.15951 5.27696 5.04384 4.39001C5.92816 3.50307 7.12816 3.00318 8.38063 3H16.9467C18.1991 3.00318 19.3993 3.50307 20.2836 4.39001C21.1679 5.27696 21.6642 6.47851 21.6637 7.73099V13.24C21.6621 14.4904 21.1646 15.6892 20.2803 16.5733C19.396 17.4574 18.1971 17.9547 16.9467 17.956H9.58363L6.71669 20.856C6.62266 20.9487 6.49573 21.0005 6.36366 21ZM8.38368 4C7.39634 4.00291 6.45052 4.39736 5.75368 5.09683C5.05683 5.7963 4.66584 6.74364 4.66664 7.73099V13.24C4.66454 13.9046 4.84329 14.5573 5.18361 15.1282C5.52393 15.6991 6.01301 16.1667 6.59865 16.481C6.67864 16.5236 6.74557 16.5871 6.79225 16.6648C6.83893 16.7425 6.8636 16.8314 6.86366 16.922V19.288L9.02272 17.108C9.06919 17.0611 9.12439 17.0239 9.18532 16.9985C9.24625 16.9731 9.31169 16.96 9.3777 16.96H16.9497C17.935 16.9589 18.8796 16.5671 19.5764 15.8705C20.2732 15.1739 20.6653 14.2293 20.6666 13.244V7.73499C20.6672 6.74772 20.2763 5.80055 19.5795 5.10114C18.8827 4.40172 17.937 4.00717 16.9497 4.004L8.38368 4Z" fill="#8798A1"/>
<path d="M12.6666 11.399C12.4726 11.3994 12.2863 11.3228 12.1487 11.186C12.081 11.1176 12.0269 11.0368 11.9896 10.948C11.9534 10.8595 11.9353 10.7646 11.9366 10.669C11.9335 10.5727 11.9508 10.4769 11.9873 10.3878C12.0238 10.2987 12.0788 10.2183 12.1487 10.152C12.2104 10.0753 12.2942 10.0195 12.3887 9.992C12.4763 9.95293 12.5712 9.93274 12.6671 9.93274C12.7631 9.93274 12.858 9.95293 12.9457 9.992C13.0397 10.02 13.123 10.0758 13.1847 10.152C13.3209 10.2896 13.397 10.4754 13.3966 10.669C13.3985 10.7647 13.3804 10.8597 13.3436 10.948C13.2884 11.0819 13.1946 11.1964 13.074 11.2767C12.9534 11.357 12.8115 11.3996 12.6666 11.399Z" fill="#8798A1"/>
<path d="M8.85266 11.399C8.65861 11.3994 8.47238 11.3228 8.33472 11.186C8.26699 11.1176 8.21296 11.0368 8.17566 10.948C8.13939 10.8595 8.12138 10.7646 8.12268 10.669C8.11951 10.5727 8.1368 10.4769 8.17334 10.3878C8.20988 10.2987 8.26488 10.2183 8.33472 10.152C8.39642 10.0753 8.4802 10.0195 8.57471 9.992C8.66236 9.95293 8.75719 9.93274 8.85315 9.93274C8.94912 9.93274 9.04407 9.95293 9.13172 9.992C9.2257 10.02 9.30891 10.0758 9.37061 10.152C9.50677 10.2896 9.58301 10.4754 9.58264 10.669C9.58449 10.7647 9.56646 10.8597 9.52967 10.948C9.47441 11.0819 9.38047 11.1964 9.25989 11.2767C9.13931 11.357 8.99755 11.3996 8.85266 11.399Z" fill="#8798A1"/>
<path d="M16.4807 11.376C16.2867 11.3763 16.1004 11.2997 15.9626 11.163C15.8951 11.0944 15.8412 11.0137 15.8037 10.925C15.7674 10.8365 15.7493 10.7416 15.7506 10.646C15.7474 10.5497 15.7647 10.4539 15.8013 10.3648C15.8378 10.2757 15.8928 10.1953 15.9626 10.129C16.0244 10.0523 16.1081 9.99646 16.2026 9.96899C16.2902 9.92943 16.3852 9.90897 16.4812 9.90897C16.5772 9.90897 16.6721 9.92943 16.7596 9.96899C16.8536 9.99699 16.937 10.0528 16.9987 10.129C17.1348 10.2666 17.2111 10.4524 17.2107 10.646C17.2125 10.7417 17.1945 10.8366 17.1577 10.925C17.1025 11.0589 17.0085 11.1734 16.8879 11.2537C16.7674 11.334 16.6256 11.3766 16.4807 11.376Z" fill="#8798A1"/>
</svg>
