<svg width="59" height="53" viewBox="0 0 59 53" fill="none" xmlns="http://www.w3.org/2000/svg">
<path fill-rule="evenodd" clip-rule="evenodd" d="M55.3235 46.7126C55.2996 46.6885 55.2518 46.6644 55.2041 46.6403C55.0847 46.5681 54.9176 46.4476 54.6789 46.2791C54.2254 45.9419 53.557 45.4602 52.7454 44.7859C51.4087 43.7021 49.7139 42.2089 47.9475 40.3063C48.0669 40.1859 48.1863 40.0654 48.3056 39.945C48.3772 39.8728 48.4489 39.8005 48.5205 39.7283C48.8546 39.3911 49.1888 39.0539 49.523 38.7168C49.5946 38.6445 49.6901 38.5482 49.7617 38.4759C50.1197 38.0906 50.4778 37.7293 50.812 37.3199C50.8597 37.2717 50.8836 37.2236 50.9313 37.1995C51.719 36.3084 52.459 35.3691 53.1751 34.4058C53.2228 34.3335 53.2706 34.2613 53.3422 34.189C53.6286 33.7796 53.9151 33.3702 54.2016 32.9367C54.2732 32.8163 54.3448 32.7199 54.4164 32.5995C54.679 32.1901 54.9176 31.7807 55.1802 31.3472C55.2518 31.2508 55.2996 31.1304 55.3712 31.0341C55.6337 30.5524 55.8963 30.0707 56.1589 29.5649C56.1827 29.5168 56.2066 29.4927 56.2305 29.4445C56.7795 28.3126 57.2569 27.1566 57.6627 25.9283C57.6866 25.8801 57.6866 25.832 57.7105 25.7838C57.8776 25.254 58.0446 24.7 58.1878 24.1461C58.2117 24.0498 58.2356 23.9293 58.2594 23.833C58.3788 23.3032 58.4982 22.7733 58.5937 22.2435C58.6175 22.1472 58.6414 22.0267 58.6414 21.9304C58.7368 21.3524 58.8084 20.7503 58.8562 20.1482C58.8562 20.1 58.8562 20.0519 58.8801 20.0278C58.9278 19.3535 58.9756 18.6791 58.9756 17.9807C58.9756 11.189 56.684 5.98697 53.1751 3.04875C51.0745 1.29064 48.5205 0.351368 45.7754 0.375452C40.9059 0.423619 36.6809 3.5304 34.3893 8.78066C33.2674 11.3576 32.623 14.4644 32.623 18.0047C32.623 26.8435 36.0841 34.1409 40.0227 39.5838C39.7601 39.7765 39.5214 39.9691 39.2588 40.1618C38.9485 40.3786 38.6382 40.6194 38.3279 40.8361C37.8505 41.1733 37.397 41.4864 36.9434 41.7754C36.7047 41.944 36.4422 42.1126 36.2035 42.2571C35.6067 42.6424 35.0338 43.0037 34.4848 43.3168C34.3893 43.3649 34.2938 43.4372 34.2222 43.4853C33.5538 43.8707 32.9094 44.2319 32.3365 44.5691C31.3579 45.123 30.5224 45.5324 29.8779 45.8455C29.8063 45.8696 29.7585 45.9178 29.6869 45.9419C29.0185 45.6047 28.1115 45.1471 27.0135 44.5691C25.1039 43.5335 22.7169 42.0885 20.2344 40.2581C19.924 40.0414 19.6137 39.8005 19.3034 39.5838C19.3511 39.5115 19.3989 39.4393 19.4705 39.367C19.566 39.2225 19.6614 39.078 19.7569 38.9576C19.924 38.7168 20.0912 38.4759 20.2583 38.2351C21.2847 36.6937 22.2633 35.0079 23.1465 33.2016C23.2181 33.0571 23.2897 32.9367 23.3374 32.7922C23.6239 32.166 23.9103 31.5398 24.1729 30.8896C24.1968 30.8414 24.2207 30.7932 24.2207 30.7691C24.4833 30.0948 24.7458 29.3964 24.9607 28.6979C25.0323 28.5053 25.08 28.2885 25.1516 28.0958C25.3187 27.5419 25.4858 26.988 25.629 26.434C25.6768 26.2414 25.7245 26.0487 25.7722 25.832C25.9393 25.1094 26.1064 24.3628 26.2258 23.6163C26.2497 23.4236 26.2735 23.2309 26.3212 23.0142C26.4167 22.4121 26.4883 21.8341 26.536 21.2079C26.5599 20.943 26.5838 20.7021 26.6077 20.4372C26.6555 19.6906 26.7031 18.944 26.7031 18.1733C26.7031 18.1252 26.7031 18.0529 26.7031 18.0047C26.7031 7.33564 20.8073 0.471774 13.5508 0.399522C13.4075 0.399522 13.2404 0.42363 13.0972 0.42363C12.8585 0.42363 12.6198 0.4477 12.3811 0.4477C12.1662 0.471784 11.9753 0.495865 11.7843 0.519948C11.5934 0.544032 11.4024 0.5681 11.2115 0.616267C10.9966 0.664435 10.8057 0.712633 10.6147 0.760801C10.4237 0.808968 10.2328 0.857116 10.0657 0.929368C9.87471 1.00162 9.68377 1.04979 9.49281 1.12204C9.27798 1.19429 9.06312 1.29063 8.87216 1.38696C8.58572 1.53147 8.27542 1.67595 7.98898 1.82045C7.82189 1.91679 7.63092 2.01315 7.46383 2.10948C7.29674 2.2299 7.10578 2.35031 6.93869 2.47073C6.7716 2.59114 6.62842 2.71159 6.46133 2.832C6.29424 2.95242 6.1271 3.09692 5.96 3.24142C5.81678 3.38593 5.64969 3.53041 5.50647 3.67491C5.36325 3.81942 5.19615 3.96394 5.05293 4.10844C4.79036 4.39744 4.52784 4.68644 4.28914 4.99953C4.16979 5.16811 4.05043 5.33668 3.90721 5.50526C3.76399 5.69793 3.64461 5.86653 3.50139 6.08329C3.38204 6.27596 3.2627 6.46864 3.14335 6.66131C3.024 6.85398 2.90466 7.07072 2.78531 7.28748C2.66596 7.48015 2.57047 7.6969 2.47499 7.88957C2.35564 8.13041 2.2602 8.37124 2.14084 8.63616C2.04536 8.82883 1.97372 9.02151 1.87824 9.21418C1.71114 9.64769 1.56792 10.0812 1.4247 10.5147C1.35309 10.7314 1.30538 10.9482 1.23377 11.165C1.18603 11.3576 1.1144 11.5503 1.06666 11.7671C1.06666 11.7911 1.06666 11.8152 1.06666 11.8393C0.613128 13.7178 0.350586 15.7891 0.350586 18.0288C0.350586 27.3974 5.55426 34.8634 11.2354 40.2822C11.2592 40.3063 11.3069 40.3304 11.3308 40.3544C9.58826 42.233 7.89348 43.7503 6.55676 44.834C5.74517 45.4843 5.07682 45.9901 4.62328 46.3272C4.38458 46.4958 4.21749 46.6162 4.09814 46.6885C4.0504 46.7366 4.00269 46.7607 3.97882 46.7607L3.95492 46.7848C3.95492 46.7848 3.95494 46.7848 5.45875 49.1932C6.96257 51.6016 6.96258 51.6016 6.96258 51.6016H6.98648C7.01035 51.6016 7.01032 51.5775 7.03419 51.5775C7.08193 51.5534 7.12964 51.5052 7.22512 51.4571C7.39221 51.3607 7.60709 51.1922 7.86966 50.9995C8.41867 50.6142 9.1825 50.0361 10.0896 49.2895C11.6411 48.0372 13.5984 46.255 15.6513 44.0393H15.6752C16.0093 44.2801 16.3436 44.5209 16.6777 44.7618C19.4944 46.833 22.1917 48.4707 24.3161 49.6267C25.6051 50.3492 26.7032 50.8791 27.4909 51.2403C27.9206 51.4571 29.5915 52.3 29.5915 52.3C29.5915 52.3 30.1166 52.0591 30.6895 51.7942C30.6895 51.7942 30.7133 51.7942 30.7133 51.7702C30.7133 51.7702 30.7372 51.7702 30.7611 51.7461C30.8088 51.722 30.9043 51.6738 30.9998 51.6257C31.2146 51.5293 31.5249 51.3848 31.9068 51.2162C32.05 51.144 32.1933 51.0717 32.3365 50.9995C32.5752 50.8791 32.8139 50.7586 33.0765 50.6382C33.6255 50.3733 34.2461 50.0361 34.9145 49.6749C34.9622 49.6508 35.0099 49.6267 35.0577 49.6026C35.6067 49.3136 36.2035 48.9764 36.8002 48.6152C36.8718 48.567 36.9434 48.5429 37.015 48.4948C37.6118 48.1335 38.2324 47.7482 38.9008 47.3388C38.9963 47.2665 39.0918 47.2183 39.1872 47.1461C39.8317 46.7367 40.4762 46.3031 41.1446 45.8455C41.264 45.7492 41.3833 45.677 41.5265 45.5807C42.171 45.1231 42.8393 44.6414 43.4838 44.1597C43.5554 44.1115 43.627 44.0634 43.6987 44.0152C45.7515 46.255 47.7328 48.0131 49.2843 49.2655C50.1914 50.0121 50.9791 50.59 51.5042 50.9754C51.7668 51.1681 52.0055 51.3126 52.1487 51.433C52.2203 51.4812 52.292 51.5293 52.3397 51.5534C52.3636 51.5775 52.3874 51.5775 52.3874 51.5775H52.4113C52.4113 51.5775 52.4112 51.5775 53.9151 49.1691C55.4189 46.7607 55.4189 46.7607 55.4189 46.7607L55.3235 46.7126ZM5.91229 17.9807C5.91229 16.343 6.05554 14.922 6.31811 13.6938C6.36585 13.477 6.41359 13.2603 6.46133 13.0676C6.50907 12.899 6.53291 12.7304 6.58065 12.5859C6.62839 12.3932 6.70002 12.2006 6.74776 12.0079C6.7955 11.8634 6.84326 11.6948 6.91487 11.5503C6.98648 11.3817 7.05806 11.2131 7.1058 11.0445C7.17741 10.9 7.22512 10.7555 7.29673 10.6351C7.36834 10.4906 7.44001 10.322 7.51162 10.1775C7.58323 10.033 7.67865 9.88853 7.75026 9.74403C7.89348 9.52727 8.01287 9.3105 8.15609 9.11783C8.2277 8.99741 8.32319 8.87699 8.3948 8.78066C8.49028 8.66024 8.58573 8.56393 8.65734 8.46759C8.72895 8.37126 8.82444 8.2749 8.89606 8.17856C8.99154 8.08223 9.087 7.9859 9.18248 7.88957C9.27797 7.81732 9.34961 7.74509 9.44509 7.64875C9.54057 7.55242 9.63599 7.48015 9.75534 7.4079C9.82695 7.33565 9.92247 7.28746 10.018 7.2393C10.4237 6.95029 10.8057 6.73354 11.2115 6.56496C11.2831 6.54087 11.3308 6.51679 11.4024 6.49271C11.5217 6.44454 11.6411 6.39636 11.7843 6.37228C11.8321 6.3482 11.9037 6.34822 11.9514 6.32414C12.0708 6.30006 12.214 6.25187 12.3334 6.22778C12.3811 6.22778 12.4049 6.20371 12.4527 6.20371C12.763 6.15555 13.0494 6.13147 13.3359 6.13147C16.4151 6.15555 20.8788 9.23825 20.8788 18.0047C20.8788 18.1011 20.8788 18.1974 20.8788 18.2938C20.8788 18.8718 20.855 19.4498 20.8072 20.0278C20.7833 20.2686 20.7595 20.5094 20.7356 20.7503C20.6879 21.256 20.6163 21.7618 20.5447 22.2435C20.5208 22.4121 20.4969 22.5806 20.4731 22.7492C20.3776 23.3754 20.2344 23.9775 20.0911 24.5555C20.0434 24.7723 19.9718 24.989 19.924 25.2058C19.8047 25.6875 19.6615 26.1451 19.5183 26.6026C19.4705 26.7472 19.4227 26.9157 19.375 27.0602C19.184 27.6623 18.9454 28.2403 18.7305 28.8184C18.6828 28.9388 18.635 29.0592 18.5634 29.2037C18.3247 29.7335 18.1099 30.2634 17.8473 30.7932C17.8235 30.8414 17.7996 30.8896 17.7757 30.9377C17.1551 32.166 16.4868 33.3461 15.7707 34.4539C15.4603 34.9597 15.1262 35.4414 14.792 35.923C14.6726 35.8026 14.5533 35.6822 14.4339 35.5618C9.65992 30.7932 5.91229 24.8686 5.91229 17.9807ZM38.2324 17.9807C38.2324 11.189 40.9059 7.81732 43.5554 6.61313C44.3193 6.27596 45.0832 6.08329 45.7754 6.08329C46.8496 6.08329 48.1385 6.44454 49.332 7.35972C51.4326 8.97333 53.2706 12.2246 53.2706 17.9807C53.2706 18.5105 53.2467 19.0162 53.199 19.5461C53.199 19.5943 53.199 19.6184 53.1751 19.6665C53.1273 20.1241 53.0797 20.5817 53.0081 21.0393C52.9842 21.1116 52.9841 21.2079 52.9603 21.2801C52.8887 21.6895 52.7932 22.1231 52.6977 22.5325C52.6739 22.6047 52.6738 22.677 52.6499 22.7492C52.2919 24.1943 51.7668 25.5911 51.0984 26.9398C51.0745 26.988 51.0268 27.0602 51.0029 27.1084C50.8119 27.4937 50.621 27.855 50.4061 28.2403C50.3584 28.3126 50.3107 28.4089 50.2629 28.4812C50.0481 28.8424 49.8333 29.1796 49.6185 29.5409C49.5707 29.6131 49.523 29.6854 49.4753 29.7576C48.9262 30.6005 48.3295 31.4194 47.7089 32.2142C47.685 32.2383 47.6611 32.2623 47.6611 32.2864C47.3747 32.6477 47.0882 32.9848 46.7779 33.3461C46.7063 33.4424 46.6347 33.5147 46.5392 33.611C46.2766 33.9 46.038 34.1649 45.7754 34.4539C45.6799 34.5503 45.5844 34.6466 45.5128 34.743C45.2502 35.0079 44.9877 35.2969 44.7012 35.5618C44.6296 35.6341 44.5341 35.7304 44.4625 35.8026C44.4148 35.8508 44.367 35.899 44.3193 35.9472C40.9775 31.1304 38.2324 25.0854 38.2324 17.9807Z" fill="#129793"/>
</svg>
