<svg width="212" height="221" viewBox="0 0 212 221" fill="none" xmlns="http://www.w3.org/2000/svg">
<g filter="url(#filter0_d_1723_127277)">
<path d="M205.694 110.813C205.665 136.578 195.677 161.334 177.818 179.906C159.96 198.477 135.614 209.427 109.87 210.465C84.1262 211.503 58.9775 202.549 39.6818 185.476C20.3862 168.402 8.43743 144.531 6.33363 118.852C4.22983 93.173 12.1339 67.6749 28.3933 47.6885C44.6527 27.702 68.0087 14.7745 93.5783 11.6085C119.148 8.44263 144.952 15.2835 165.594 30.7008C186.237 46.1182 200.122 68.9185 204.344 94.335C205.248 99.781 205.699 105.292 205.694 110.813Z" fill="#C2E4E2"/>
</g>
<path d="M182.58 23.3119C182.981 23.8515 183.214 24.498 183.248 25.1698C183.282 25.8415 183.116 26.5082 182.771 27.0855C182.426 27.6629 181.917 28.1249 181.31 28.4132C180.702 28.7015 180.022 28.8031 179.357 28.7052C178.692 28.6072 178.07 28.3141 177.571 27.8629C177.073 27.4117 176.719 26.8227 176.555 26.1705C176.391 25.5182 176.424 24.8319 176.65 24.1985C176.876 23.565 177.285 23.0129 177.825 22.6119C178.548 22.0745 179.456 21.8464 180.347 21.9777C181.239 22.1089 182.042 22.5888 182.58 23.3119Z" fill="#C2E4E2"/>
<path d="M17.1327 166.631C17.5342 167.171 17.7666 167.817 17.8005 168.489C17.8345 169.161 17.6685 169.828 17.3235 170.405C16.9784 170.982 16.4699 171.444 15.8623 171.733C15.2546 172.021 14.5751 172.122 13.9097 172.025C13.2443 171.927 12.6229 171.633 12.1241 171.182C11.6253 170.731 11.2715 170.142 11.1075 169.49C10.9435 168.838 10.9767 168.151 11.2027 167.518C11.4288 166.884 11.8377 166.332 12.3777 165.931C13.1012 165.394 14.0085 165.166 14.9001 165.297C15.7917 165.428 16.5947 165.908 17.1327 166.631Z" fill="#C2E4E2"/>
<path d="M173.433 4.48374C174.975 6.36055 175.926 8.65259 176.166 11.07C176.406 13.4875 175.924 15.9218 174.78 18.065C173.636 20.2083 171.883 21.9643 169.741 23.1111C167.6 24.2578 165.166 24.7437 162.748 24.5074C160.33 24.271 158.037 23.323 156.158 21.7833C154.279 20.2436 152.899 18.1812 152.192 15.857C151.485 13.5329 151.483 11.0513 152.186 8.72601C152.89 6.40077 154.267 4.33633 156.144 2.79374C158.66 0.725332 161.896 -0.258625 165.138 0.0583072C168.38 0.375239 171.364 1.9671 173.433 4.48374Z" fill="#C2E4E2"/>
<g filter="url(#filter1_d_1723_127277)">
<path d="M76.9866 46.8263C75.5599 43.762 73.2833 41.1718 70.4275 39.3637C67.5717 37.5555 64.2567 36.6054 60.8766 36.6263C49.8466 36.6263 43.0166 45.9163 43.0166 54.5363C43.0333 58.6257 44.4722 62.5818 47.0866 65.7263L47.8766 66.6663C47.8752 66.6772 47.8763 66.6882 47.8798 66.6986C47.8832 66.709 47.889 66.7185 47.8966 66.7263L53.2166 73.2163L58.5666 79.7463L59.8066 81.2663C59.9327 81.429 60.0952 81.5599 60.281 81.6485C60.4668 81.7371 60.6708 81.7808 60.8766 81.7763H60.9166C61.1177 81.7784 61.3166 81.7334 61.4972 81.6448C61.6778 81.5563 61.8351 81.4266 61.9566 81.2663L63.1866 79.7463L66.7966 75.3463L68.5266 73.2163L73.8766 66.7063L74.6866 65.7463V65.7263C76.8369 63.1256 78.1965 59.9629 78.6041 56.6131C79.0118 53.2633 78.4504 49.8668 76.9866 46.8263ZM64.5066 73.1563H57.2666C57.1344 73.1576 57.0033 73.1328 56.8808 73.0831C56.7584 73.0334 56.6469 72.96 56.553 72.867C56.4591 72.774 56.3845 72.6633 56.3337 72.5413C56.2828 72.4193 56.2566 72.2885 56.2566 72.1563C56.2566 72.0246 56.2828 71.8942 56.3338 71.7728C56.3848 71.6514 56.4595 71.5413 56.5536 71.4491C56.6477 71.3569 56.7592 71.2844 56.8816 71.2359C57.004 71.1873 57.1349 71.1637 57.2666 71.1663H64.5066C64.6365 71.1651 64.7653 71.1899 64.8854 71.2394C65.0055 71.2888 65.1145 71.3619 65.2059 71.4542C65.2972 71.5465 65.3692 71.6562 65.4174 71.7768C65.4656 71.8974 65.4892 72.0265 65.4866 72.1563C65.4885 72.2865 65.4645 72.4157 65.4162 72.5366C65.3678 72.6574 65.296 72.7675 65.2049 72.8605C65.1138 72.9534 65.0052 73.0274 64.8853 73.0782C64.7655 73.129 64.6368 73.1555 64.5066 73.1563ZM64.5066 68.3463H57.2666C57.1276 68.3603 56.9871 68.3449 56.8544 68.3013C56.7216 68.2576 56.5995 68.1866 56.4959 68.0929C56.3922 67.9991 56.3094 67.8847 56.2527 67.757C56.196 67.6293 56.1667 67.4911 56.1667 67.3513C56.1667 67.2116 56.196 67.0734 56.2527 66.9457C56.3094 66.8179 56.3922 66.7035 56.4959 66.6097C56.5995 66.516 56.7216 66.445 56.8544 66.4013C56.9871 66.3577 57.1276 66.3424 57.2666 66.3563H64.5066C64.7533 66.3811 64.982 66.4966 65.1483 66.6804C65.3146 66.8643 65.4067 67.1034 65.4067 67.3513C65.4067 67.5992 65.3146 67.8383 65.1483 68.0222C64.982 68.206 64.7533 68.3216 64.5066 68.3463ZM64.5066 63.5363H57.2666C57.1366 63.5363 57.0079 63.5107 56.8877 63.461C56.7676 63.4112 56.6585 63.3383 56.5666 63.2464C56.4746 63.1544 56.4017 63.0453 56.352 62.9252C56.3022 62.8051 56.2766 62.6763 56.2766 62.5463C56.2766 62.4163 56.3022 62.2876 56.352 62.1675C56.4017 62.0473 56.4746 61.9382 56.5666 61.8463C56.6585 61.7544 56.7676 61.6814 56.8877 61.6317C57.0079 61.5819 57.1366 61.5563 57.2666 61.5563H64.5066C64.7692 61.5563 65.021 61.6606 65.2066 61.8463C65.3923 62.0319 65.4966 62.2838 65.4966 62.5463C65.4966 62.8089 65.3923 63.0607 65.2066 63.2464C65.021 63.432 64.7692 63.5363 64.5066 63.5363ZM64.5066 58.7363H57.2666C57.1276 58.7503 56.9871 58.7349 56.8544 58.6913C56.7216 58.6476 56.5995 58.5766 56.4959 58.4829C56.3922 58.3891 56.3094 58.2747 56.2527 58.147C56.196 58.0193 56.1667 57.8811 56.1667 57.7413C56.1667 57.6016 56.196 57.4634 56.2527 57.3356C56.3094 57.2079 56.3922 57.0935 56.4959 56.9997C56.5995 56.906 56.7216 56.835 56.8544 56.7913C56.9871 56.7477 57.1276 56.7324 57.2666 56.7463H64.5066C64.7533 56.7711 64.982 56.8866 65.1483 57.0704C65.3146 57.2543 65.4067 57.4934 65.4067 57.7413C65.4067 57.9892 65.3146 58.2283 65.1483 58.4122C64.982 58.596 64.7533 58.7116 64.5066 58.7363ZM64.9366 53.8263C64.8017 53.8888 64.6553 53.9229 64.5066 53.9263H57.2666C57.1146 53.924 56.9647 53.89 56.8266 53.8263C56.6209 53.7299 56.4545 53.5657 56.3553 53.3612C56.2561 53.1568 56.23 52.9245 56.2816 52.7032C56.3331 52.4819 56.459 52.285 56.6383 52.1454C56.8176 52.0058 57.0394 51.932 57.2666 51.9363H64.5066C64.7289 51.9419 64.9429 52.0215 65.1149 52.1623C65.2869 52.3032 65.407 52.4974 65.4564 52.7142C65.5057 52.9309 65.4813 53.158 65.3872 53.3594C65.2931 53.5608 65.1345 53.7251 64.9366 53.8263ZM74.0866 63.1963C73.7966 63.6263 73.4766 64.0663 73.1466 64.4763L72.1166 65.7263L70.9766 67.0863V67.1263L69.8666 68.4863H69.8466L68.7666 69.8063V69.8263L66.7766 72.2563V50.1363C66.7769 49.955 66.7056 49.7808 66.5783 49.6516C66.451 49.5225 66.2779 49.4487 66.0966 49.4463H55.6466C55.4674 49.4525 55.2976 49.5278 55.1727 49.6564C55.0478 49.7851 54.9775 49.957 54.9766 50.1363V72.2563L53.0066 69.8263V63.7663H51.6966C51.5576 63.7803 51.4171 63.7649 51.2844 63.7213C51.1516 63.6776 51.0295 63.6066 50.9259 63.5129C50.8222 63.4191 50.7394 63.3047 50.6827 63.177C50.626 63.0493 50.5967 62.9111 50.5967 62.7713C50.5967 62.6316 50.626 62.4934 50.6827 62.3656C50.7394 62.2379 50.8222 62.1235 50.9259 62.0297C51.0295 61.936 51.1516 61.865 51.2844 61.8213C51.4171 61.7777 51.5576 61.7624 51.6966 61.7763H53.0066V59.0563H51.6966C51.4306 59.0532 51.1766 58.9454 50.9895 58.7564C50.8023 58.5674 50.6971 58.3123 50.6966 58.0463C50.7018 57.7846 50.8095 57.5353 50.9965 57.3521C51.1834 57.1689 51.4348 57.0663 51.6966 57.0663H53.0066V55.7993H50.5166C50.287 55.8029 50.0678 55.8957 49.9054 56.0581C49.743 56.2205 49.6502 56.4397 49.6466 56.6693V65.7493L48.6266 64.4793C48.2795 64.0691 47.962 63.6346 47.6766 63.1793V56.6693C47.6763 56.2963 47.7496 55.9269 47.8923 55.5822C48.0349 55.2375 48.2441 54.9243 48.5078 54.6605C48.7716 54.3968 49.0848 54.1876 49.4295 54.045C49.7742 53.9023 50.1436 53.8291 50.5166 53.8293H53.0066V50.1393C53.0042 49.791 53.0708 49.4457 53.2023 49.1232C53.3339 48.8007 53.528 48.5074 53.7733 48.2602C54.0187 48.013 54.3105 47.8167 54.632 47.6827C54.9535 47.5487 55.2983 47.4796 55.6466 47.4793H66.0966C66.8032 47.4785 67.4813 47.7582 67.9819 48.2569C68.4825 48.7557 68.7647 49.4327 68.7666 50.1393V53.8293H71.2466C71.6196 53.8291 71.989 53.9023 72.3337 54.045C72.6784 54.1876 72.9916 54.3968 73.2554 54.6605C73.5191 54.9243 73.7283 55.2375 73.871 55.5822C74.0136 55.9269 74.0869 56.2963 74.0866 56.6693V63.1963Z" fill="white"/>
</g>
<path d="M65.4859 72.1572C65.4877 72.2873 65.4638 72.4166 65.4154 72.5374C65.3671 72.6583 65.2953 72.7684 65.2042 72.8613C65.1131 72.9543 65.0045 73.0283 64.8846 73.0791C64.7647 73.1299 64.636 73.1564 64.5059 73.1572H57.2659C57.1337 73.1585 57.0026 73.1336 56.8801 73.084C56.7576 73.0343 56.6462 72.9609 56.5523 72.8679C56.4584 72.7749 56.3838 72.6642 56.3329 72.5422C56.282 72.4202 56.2559 72.2894 56.2559 72.1572C56.2558 72.0255 56.2821 71.8951 56.3331 71.7737C56.3841 71.6522 56.4588 71.5422 56.5529 71.45C56.6469 71.3578 56.7584 71.2853 56.8809 71.2367C57.0033 71.1882 57.1342 71.1645 57.2659 71.1672H64.5059C64.6357 71.166 64.7646 71.1908 64.8847 71.2403C65.0048 71.2897 65.1137 71.3627 65.2051 71.455C65.2965 71.5474 65.3684 71.6571 65.4167 71.7777C65.4649 71.8983 65.4884 72.0273 65.4859 72.1572Z" fill="#C2E4E2"/>
<path d="M65.4859 67.3566C65.4867 67.486 65.4619 67.6142 65.4131 67.734C65.3643 67.8539 65.2922 67.9629 65.2012 68.0548C65.1102 68.1468 65.0019 68.2199 64.8826 68.2699C64.7633 68.32 64.6353 68.346 64.5059 68.3466H57.2659C57.1268 68.3605 56.9864 68.3452 56.8537 68.3015C56.7209 68.2579 56.5988 68.1869 56.4951 68.0931C56.3915 67.9994 56.3087 67.885 56.252 67.7572C56.1953 67.6295 56.166 67.4913 56.166 67.3516C56.166 67.2118 56.1953 67.0736 56.252 66.9459C56.3087 66.8182 56.3915 66.7037 56.4951 66.61C56.5988 66.5162 56.7209 66.4452 56.8537 66.4016C56.9864 66.3579 57.1268 66.3426 57.2659 66.3566H64.5059C64.6361 66.3573 64.7648 66.3839 64.8846 66.4347C65.0045 66.4854 65.1131 66.5594 65.2042 66.6524C65.2953 66.7454 65.3671 66.8555 65.4155 66.9763C65.4638 67.0972 65.4877 67.2264 65.4859 67.3566Z" fill="#C2E4E2"/>
<path d="M65.4864 62.5466C65.4881 62.6763 65.464 62.805 65.4155 62.9252C65.367 63.0455 65.295 63.1548 65.2038 63.247C65.1126 63.3391 65.0039 63.4122 64.8842 63.4619C64.7645 63.5117 64.636 63.5371 64.5064 63.5366H57.2664C57.0038 63.5366 56.752 63.4323 56.5663 63.2467C56.3807 63.061 56.2764 62.8092 56.2764 62.5466C56.2764 62.2841 56.3807 62.0323 56.5663 61.8466C56.752 61.661 57.0038 61.5566 57.2664 61.5566H64.5064C64.636 61.5562 64.7645 61.5816 64.8842 61.6314C65.0039 61.6811 65.1126 61.7542 65.2038 61.8463C65.295 61.9385 65.367 62.0478 65.4155 62.1681C65.464 62.2883 65.4881 62.417 65.4864 62.5466Z" fill="#C2E4E2"/>
<path d="M65.4859 57.7372C65.4877 57.8673 65.4638 57.9966 65.4155 58.1174C65.3671 58.2383 65.2953 58.3484 65.2042 58.4413C65.1131 58.5343 65.0045 58.6083 64.8846 58.6591C64.7648 58.7099 64.6361 58.7364 64.5059 58.7372H57.2659C57.1268 58.7511 56.9864 58.7358 56.8537 58.6922C56.7209 58.6485 56.5988 58.5775 56.4951 58.4838C56.3915 58.39 56.3087 58.2756 56.252 58.1479C56.1953 58.0201 56.166 57.8819 56.166 57.7422C56.166 57.6024 56.1953 57.4642 56.252 57.3365C56.3087 57.2088 56.3915 57.0944 56.4951 57.0006C56.5988 56.9069 56.7209 56.8359 56.8537 56.7922C56.9864 56.7486 57.1268 56.7332 57.2659 56.7472H64.5059C64.6353 56.7477 64.7633 56.7737 64.8826 56.8238C65.0019 56.8739 65.1102 56.947 65.2012 57.0389C65.2922 57.1309 65.3643 57.2399 65.4131 57.3597C65.4619 57.4795 65.4867 57.6078 65.4859 57.7372Z" fill="#C2E4E2"/>
<path d="M65.4858 52.9367C65.4879 53.1219 65.4373 53.3039 65.3399 53.4615C65.2426 53.6191 65.1024 53.7458 64.9358 53.8267H64.2858C64.0457 53.8277 63.8068 53.8613 63.5758 53.9267H58.1858C57.9546 53.862 57.7158 53.8284 57.4758 53.8267H56.8258C56.62 53.7302 56.4536 53.5661 56.3544 53.3616C56.2552 53.1572 56.2292 52.9249 56.2807 52.7036C56.3322 52.4823 56.4582 52.2854 56.6375 52.1458C56.8168 52.0062 57.0386 51.9324 57.2658 51.9367H64.5058C64.6359 51.9375 64.7647 51.964 64.8845 52.0148C65.0044 52.0656 65.113 52.1396 65.2041 52.2326C65.2952 52.3255 65.367 52.4356 65.4153 52.5565C65.4637 52.6773 65.4876 52.8066 65.4858 52.9367Z" fill="#C2E4E2"/>
<path d="M74.0858 56.6665V63.1995C73.7958 63.6295 73.4758 64.0695 73.1458 64.4795L72.1158 65.7295V56.6695C72.114 56.4393 72.0217 56.2191 71.8589 56.0563C71.6962 55.8936 71.476 55.8013 71.2458 55.7995H68.7658V57.0695H70.0658C70.3266 57.0695 70.5769 57.1724 70.7623 57.3559C70.9477 57.5394 71.0531 57.7887 71.0558 58.0495C71.0571 58.1808 71.0325 58.3111 70.9835 58.4329C70.9345 58.5548 70.8619 58.6658 70.77 58.7595C70.678 58.8533 70.5685 58.9281 70.4477 58.9796C70.3269 59.031 70.1971 59.0582 70.0658 59.0595H68.7658V61.7795H70.0658C70.3125 61.8043 70.5412 61.9198 70.7075 62.1036C70.8738 62.2875 70.9659 62.5266 70.9659 62.7745C70.9659 63.0224 70.8738 63.2615 70.7075 63.4454C70.5412 63.6292 70.3125 63.7447 70.0658 63.7695H68.7658V69.8295L66.7758 72.2595V50.1365C66.7761 49.9551 66.7048 49.781 66.5775 49.6518C66.4502 49.5226 66.2771 49.4489 66.0958 49.4465H55.6458C55.4666 49.4527 55.2968 49.528 55.1719 49.6566C55.047 49.7852 54.9767 49.9572 54.9758 50.1365V72.2565L53.0058 69.8265V63.7665H51.6958C51.5567 63.7804 51.4163 63.7651 51.2836 63.7215C51.1508 63.6778 51.0287 63.6068 50.925 63.5131C50.8214 63.4193 50.7386 63.3049 50.6819 63.1772C50.6252 63.0494 50.5959 62.9112 50.5959 62.7715C50.5959 62.6317 50.6252 62.4936 50.6819 62.3658C50.7386 62.2381 50.8214 62.1237 50.925 62.0299C51.0287 61.9362 51.1508 61.8652 51.2836 61.8215C51.4163 61.7779 51.5567 61.7625 51.6958 61.7765H53.0058V59.0565H51.6958C51.4298 59.0533 51.1758 58.9456 50.9886 58.7566C50.8015 58.5676 50.6963 58.3125 50.6958 58.0465C50.701 57.7848 50.8087 57.5355 50.9957 57.3523C51.1826 57.169 51.434 57.0664 51.6958 57.0665H53.0058V55.7995H50.5158C50.2862 55.8031 50.067 55.8959 49.9046 56.0583C49.7422 56.2207 49.6494 56.4399 49.6458 56.6695V65.7495L48.6258 64.4795C48.2787 64.0693 47.9612 63.6348 47.6758 63.1795V56.6695C47.6755 56.2965 47.7488 55.927 47.8914 55.5824C48.0341 55.2377 48.2432 54.9245 48.507 54.6607C48.7708 54.397 49.084 54.1878 49.4287 54.0451C49.7733 53.9025 50.1428 53.8292 50.5158 53.8295H53.0058V50.1395C53.0034 49.7912 53.0699 49.4459 53.2015 49.1234C53.3331 48.8009 53.5272 48.5076 53.7725 48.2604C54.0179 48.0132 54.3097 47.8169 54.6312 47.6829C54.9527 47.5489 55.2975 47.4797 55.6458 47.4795H66.0958C66.8024 47.4787 67.4805 47.7584 67.9811 48.2571C68.4817 48.7558 68.7639 49.4329 68.7658 50.1395V53.8295H71.2458C71.6188 53.8292 71.9882 53.9025 72.3329 54.0451C72.6776 54.1878 72.9908 54.397 73.2546 54.6607C73.5183 54.9245 73.7275 55.2377 73.8701 55.5824C74.0128 55.927 74.086 56.2965 74.0858 56.6695" fill="#C2E4E2"/>
<path d="M72.1166 56.6668V65.7268L70.9766 67.0868V67.1268L69.8666 68.4868H69.8466L68.7666 69.8068V63.7668H70.0666C70.3133 63.742 70.542 63.6265 70.7083 63.4427C70.8746 63.2588 70.9667 63.0197 70.9667 62.7718C70.9667 62.5239 70.8746 62.2848 70.7083 62.1009C70.542 61.9171 70.3133 61.8016 70.0666 61.7768H68.7666V59.0568H70.0666C70.1979 59.0555 70.3277 59.0283 70.4485 58.9769C70.5694 58.9254 70.6789 58.8506 70.7708 58.7569C70.8627 58.6631 70.9353 58.5521 70.9843 58.4303C71.0334 58.3084 71.0579 58.1781 71.0566 58.0468C71.054 57.786 70.9485 57.5367 70.7631 57.3532C70.5777 57.1697 70.3274 57.0668 70.0666 57.0668H68.7666V55.7998H71.2466C71.4768 55.8016 71.697 55.8939 71.8598 56.0566C72.0225 56.2194 72.1148 56.4396 72.1166 56.6698" fill="white"/>
<path d="M57.4762 53.8271H56.8262C56.9643 53.8908 57.1141 53.9249 57.2662 53.9271H58.1862C57.955 53.8625 57.7162 53.8288 57.4762 53.8271Z" fill="white"/>
<path d="M64.2862 53.8271C64.0461 53.8281 63.8072 53.8618 63.5762 53.9271H64.5062C64.6549 53.9237 64.8012 53.8897 64.9362 53.8271H64.2862ZM64.2862 53.8271C64.0461 53.8281 63.8072 53.8618 63.5762 53.9271H64.5062C64.6549 53.9237 64.8012 53.8897 64.9362 53.8271H64.2862ZM64.2862 53.8271C64.0461 53.8281 63.8072 53.8618 63.5762 53.9271H64.5062C64.6549 53.9237 64.8012 53.8897 64.9362 53.8271H64.2862ZM64.2862 53.8271C64.0461 53.8281 63.8072 53.8618 63.5762 53.9271H64.5062C64.6549 53.9237 64.8012 53.8897 64.9362 53.8271H64.2862ZM64.2862 53.8271C64.0461 53.8281 63.8072 53.8618 63.5762 53.9271H64.5062C64.6549 53.9237 64.8012 53.8897 64.9362 53.8271H64.2862ZM64.2862 53.8271C64.0461 53.8281 63.8072 53.8618 63.5762 53.9271H64.5062C64.6549 53.9237 64.8012 53.8897 64.9362 53.8271H64.2862ZM64.2862 53.8271C64.0461 53.8281 63.8072 53.8618 63.5762 53.9271H64.5062C64.6549 53.9237 64.8012 53.8897 64.9362 53.8271H64.2862ZM64.2862 53.8271C64.0461 53.8281 63.8072 53.8618 63.5762 53.9271H64.5062C64.6549 53.9237 64.8012 53.8897 64.9362 53.8271H64.2862ZM64.2862 53.8271C64.0461 53.8281 63.8072 53.8618 63.5762 53.9271H64.5062C64.6549 53.9237 64.8012 53.8897 64.9362 53.8271H64.2862ZM64.2862 53.8271C64.0461 53.8281 63.8072 53.8618 63.5762 53.9271H64.5062C64.6549 53.9237 64.8012 53.8897 64.9362 53.8271H64.2862Z" fill="white"/>
<path d="M58.1871 53.9271H57.2661C57.1144 53.925 56.9648 53.8909 56.8271 53.8271H57.4761C57.7165 53.8289 57.9556 53.8625 58.1871 53.9271Z" fill="white"/>
<path d="M64.9371 53.8271C64.8021 53.8895 64.6558 53.9235 64.5071 53.9271H63.5771C63.8078 53.8617 64.0464 53.828 64.2861 53.8271H64.9371Z" fill="white"/>
<g filter="url(#filter2_d_1723_127277)">
<path d="M167.231 82.2479C166.533 80.7719 165.528 79.4612 164.285 78.4025C163.041 77.3439 161.587 76.5616 160.018 76.1073C158.449 75.6531 156.802 75.5373 155.185 75.7675C153.569 75.9978 152.019 76.569 150.64 77.4432C149.26 78.3174 148.082 79.4746 147.184 80.8383C146.285 82.202 145.687 83.7411 145.428 85.3535C145.169 86.966 145.256 88.615 145.682 90.1915C146.109 91.7679 146.865 93.2358 147.901 94.4979L155.881 104.238C155.992 104.382 156.134 104.5 156.297 104.581C156.46 104.663 156.639 104.706 156.821 104.708C157.005 104.706 157.185 104.663 157.35 104.581C157.514 104.5 157.658 104.382 157.771 104.238L165.741 94.4979C167.141 92.8151 168.025 90.7647 168.289 88.5922C168.554 86.4197 168.186 84.2171 167.231 82.2479ZM156.821 92.1679C155.715 92.1659 154.633 91.8361 153.714 91.22C152.795 90.6039 152.078 89.7292 151.656 88.7063C151.233 87.6834 151.123 86.5583 151.339 85.4729C151.556 84.3876 152.089 83.3907 152.872 82.6081C153.654 81.8255 154.651 81.2924 155.736 81.076C156.822 80.8596 157.947 80.9697 158.97 81.3923C159.993 81.8149 160.867 82.5311 161.483 83.4505C162.1 84.3699 162.429 85.4512 162.431 86.5579C162.432 87.2948 162.287 88.0245 162.005 88.7054C161.724 89.3862 161.31 90.0049 160.789 90.5259C160.268 91.047 159.65 91.4602 158.969 91.7419C158.288 92.0237 157.558 92.1684 156.821 92.1679Z" fill="white"/>
</g>
<path d="M156.821 80.9775C155.713 80.9795 154.631 81.3102 153.711 81.9276C152.791 82.545 152.075 83.4215 151.653 84.4461C151.231 85.4707 151.123 86.5974 151.342 87.6835C151.561 88.7697 152.097 89.7666 152.882 90.5479C153.668 91.3293 154.668 91.8601 155.755 92.0731C156.842 92.2861 157.968 92.1717 158.991 91.7445C160.013 91.3173 160.886 90.5964 161.498 89.6731C162.111 88.7498 162.435 87.6655 162.431 86.5575C162.425 85.0746 161.83 83.6547 160.779 82.6089C159.727 81.5631 158.304 80.9765 156.821 80.9775ZM156.821 90.2375C156.098 90.2326 155.393 90.0138 154.794 89.6088C154.195 89.2038 153.729 88.6305 153.455 87.9613C153.181 87.292 153.111 86.5567 153.254 85.8478C153.397 85.139 153.746 84.4882 154.258 83.9776C154.77 83.4669 155.422 83.1191 156.131 82.9781C156.841 82.837 157.576 82.9089 158.244 83.1847C158.913 83.4605 159.485 83.9279 159.888 84.5281C160.292 85.1283 160.508 85.8344 160.511 86.5575C160.506 87.5336 160.115 88.4681 159.424 89.1574C158.733 89.8467 157.798 90.2349 156.821 90.2375Z" fill="#C2E4E2"/>
<path d="M160.511 86.5582C160.518 87.2883 160.308 88.0039 159.908 88.6144C159.507 89.2249 158.935 89.7026 158.262 89.9871C157.59 90.2715 156.848 90.3498 156.131 90.212C155.414 90.0742 154.754 89.7265 154.235 89.2131C153.716 88.6996 153.361 88.0436 153.216 87.3281C153.07 86.6127 153.14 85.8702 153.417 85.1947C153.694 84.5192 154.166 83.9413 154.772 83.5342C155.378 83.1271 156.091 82.9092 156.821 82.9082C157.792 82.9107 158.723 83.2948 159.414 83.9777C160.104 84.6605 160.498 85.5873 160.511 86.5582Z" fill="white"/>
<path d="M118.249 121.319C118.248 123.853 117.496 126.33 116.087 128.437C114.678 130.543 112.677 132.185 110.335 133.154C107.994 134.123 105.417 134.376 102.932 133.881C100.447 133.386 98.164 132.165 96.3725 130.373C94.5809 128.581 93.361 126.298 92.867 123.812C92.3729 121.327 92.627 118.75 93.597 116.409C94.567 114.068 96.2094 112.067 98.3165 110.659C100.424 109.251 102.901 108.5 105.435 108.5C107.119 108.496 108.787 108.824 110.344 109.467C111.901 110.109 113.315 111.053 114.506 112.243C115.696 113.434 116.64 114.849 117.283 116.405C117.925 117.962 118.253 119.63 118.249 121.314" fill="white"/>
<g filter="url(#filter3_d_1723_127277)">
<path d="M121.766 168.652L137.29 149.687C142.24 143.651 145.374 136.334 146.329 128.587C147.284 120.84 146.019 112.981 142.682 105.924C139.345 98.8676 134.074 92.9033 127.48 88.7251C120.887 84.5468 113.243 82.3264 105.437 82.3221C97.6085 82.273 89.9285 84.4595 83.2996 88.6246C76.6707 92.7897 71.3683 98.7604 68.0156 105.835C64.6629 112.91 63.3991 120.794 64.3728 128.562C65.3465 136.33 68.5171 143.659 73.5122 149.687L89.0352 168.652C66.1902 170.922 46.7852 178.098 46.7852 189.814C46.7852 204.239 76.2942 211.781 105.364 211.781C134.507 211.781 163.943 204.239 163.943 189.814C163.943 178.098 144.612 170.922 121.766 168.652ZM85.3012 121.352C85.3012 117.37 86.4821 113.476 88.6947 110.165C90.9073 106.854 94.0521 104.273 97.7314 102.749C101.411 101.225 105.459 100.826 109.365 101.603C113.271 102.38 116.859 104.298 119.675 107.114C122.492 109.93 124.409 113.518 125.186 117.424C125.963 121.33 125.564 125.378 124.04 129.058C122.516 132.737 119.935 135.882 116.624 138.095C113.313 140.307 109.42 141.488 105.437 141.488C102.791 141.496 100.169 140.98 97.7221 139.97C95.2755 138.961 93.0527 137.478 91.1814 135.606C89.31 133.735 87.8272 131.512 86.818 129.065C85.8089 126.619 85.2934 123.997 85.3012 121.35V121.352ZM105.359 191.5C85.5162 191.5 73.2872 187.033 72.3362 184.91C73.1362 182.86 82.0742 179.345 96.9362 178.32L101.915 184.398C102.317 184.943 102.841 185.386 103.445 185.691C104.049 185.996 104.716 186.155 105.393 186.155C106.07 186.155 106.737 185.996 107.341 185.691C107.946 185.386 108.47 184.943 108.871 184.398L113.85 178.32C128.275 179.345 137.062 182.713 138.307 184.764C136.843 187.253 124.76 191.5 105.356 191.5" fill="white"/>
</g>
<path d="M118.249 121.319C118.248 123.853 117.496 126.33 116.087 128.437C114.678 130.543 112.677 132.185 110.335 133.154C107.994 134.123 105.417 134.376 102.932 133.881C100.447 133.386 98.164 132.165 96.3725 130.373C94.5809 128.581 93.361 126.298 92.867 123.812C92.3729 121.327 92.627 118.75 93.597 116.409C94.567 114.068 96.2094 112.067 98.3165 110.659C100.424 109.251 102.901 108.5 105.435 108.5C107.119 108.496 108.787 108.824 110.344 109.467C111.901 110.109 113.315 111.053 114.506 112.243C115.696 113.434 116.64 114.849 117.283 116.405C117.925 117.962 118.253 119.63 118.249 121.314" fill="white"/>
<path d="M114.934 51.0105C114.746 51.0107 114.561 50.9694 114.391 50.8895C114.277 50.8484 114.174 50.7816 114.09 50.6942C114.006 50.6068 113.943 50.5012 113.906 50.3856C113.869 50.27 113.86 50.1476 113.878 50.0277C113.897 49.9078 113.942 49.7938 114.012 49.6945L117.876 44.3715C118.051 44.1641 118.291 44.0213 118.557 43.9655C118.823 43.9097 119.1 43.9442 119.344 44.0635C119.458 44.1046 119.561 44.1714 119.645 44.2587C119.729 44.346 119.791 44.4515 119.828 44.5669C119.865 44.6824 119.874 44.8047 119.856 44.9245C119.838 45.0442 119.792 45.1582 119.723 45.2575L115.859 50.5805C115.749 50.7189 115.608 50.8299 115.447 50.9045C115.287 50.9791 115.111 51.0154 114.934 51.0105Z" fill="white"/>
<path d="M118.959 51.0105C118.77 51.0107 118.584 50.969 118.414 50.8885C118.3 50.8471 118.197 50.7801 118.114 50.6926C118.03 50.605 117.967 50.4994 117.931 50.3838C117.895 50.2683 117.885 50.1459 117.904 50.0262C117.922 49.9065 117.968 49.7927 118.038 49.6935L121.904 44.3705C122.079 44.1626 122.319 44.0195 122.585 43.964C122.851 43.9086 123.128 43.944 123.372 44.0645C123.486 44.1058 123.588 44.1728 123.672 44.2602C123.756 44.3476 123.819 44.4532 123.855 44.5686C123.891 44.6841 123.901 44.8064 123.882 44.9261C123.863 45.0457 123.818 45.1595 123.748 45.2585L119.882 50.5825C119.772 50.7205 119.631 50.8309 119.471 50.9052C119.311 50.9795 119.135 51.0155 118.959 51.0105Z" fill="white"/>
<path d="M123.446 51.0105C123.258 51.0107 123.072 50.969 122.901 50.8885C122.787 50.8471 122.685 50.7801 122.601 50.6926C122.517 50.605 122.455 50.4994 122.418 50.3838C122.382 50.2683 122.373 50.1459 122.391 50.0262C122.41 49.9065 122.456 49.7927 122.525 49.6935L126.391 44.3705C126.566 44.1626 126.806 44.0195 127.072 43.964C127.338 43.9086 127.616 43.944 127.859 44.0645C127.973 44.1058 128.076 44.1728 128.16 44.2602C128.243 44.3476 128.306 44.4532 128.342 44.5686C128.379 44.6841 128.388 44.8064 128.369 44.9261C128.351 45.0457 128.305 45.1595 128.235 45.2585L124.369 50.5825C124.259 50.7205 124.118 50.8309 123.958 50.9052C123.798 50.9795 123.623 51.0155 123.446 51.0105Z" fill="white"/>
<defs>
<filter id="filter0_d_1723_127277" x="0" y="7.85156" width="211.694" height="211.694" filterUnits="userSpaceOnUse" color-interpolation-filters="sRGB">
<feFlood flood-opacity="0" result="BackgroundImageFix"/>
<feColorMatrix in="SourceAlpha" type="matrix" values="0 0 0 0 0 0 0 0 0 0 0 0 0 0 0 0 0 0 127 0" result="hardAlpha"/>
<feOffset dy="3"/>
<feGaussianBlur stdDeviation="3"/>
<feColorMatrix type="matrix" values="0 0 0 0 0 0 0 0 0 0 0 0 0 0 0 0 0 0 0.102 0"/>
<feBlend mode="normal" in2="BackgroundImageFix" result="effect1_dropShadow_1723_127277"/>
<feBlend mode="normal" in="SourceGraphic" in2="effect1_dropShadow_1723_127277" result="shape"/>
</filter>
<filter id="filter1_d_1723_127277" x="37.0166" y="33.626" width="47.7168" height="57.1504" filterUnits="userSpaceOnUse" color-interpolation-filters="sRGB">
<feFlood flood-opacity="0" result="BackgroundImageFix"/>
<feColorMatrix in="SourceAlpha" type="matrix" values="0 0 0 0 0 0 0 0 0 0 0 0 0 0 0 0 0 0 127 0" result="hardAlpha"/>
<feOffset dy="3"/>
<feGaussianBlur stdDeviation="3"/>
<feColorMatrix type="matrix" values="0 0 0 0 0 0 0 0 0 0 0 0 0 0 0 0 0 0 0.102 0"/>
<feBlend mode="normal" in2="BackgroundImageFix" result="effect1_dropShadow_1723_127277"/>
<feBlend mode="normal" in="SourceGraphic" in2="effect1_dropShadow_1723_127277" result="shape"/>
</filter>
<filter id="filter2_d_1723_127277" x="139.282" y="72.6523" width="35.0908" height="41.0557" filterUnits="userSpaceOnUse" color-interpolation-filters="sRGB">
<feFlood flood-opacity="0" result="BackgroundImageFix"/>
<feColorMatrix in="SourceAlpha" type="matrix" values="0 0 0 0 0 0 0 0 0 0 0 0 0 0 0 0 0 0 127 0" result="hardAlpha"/>
<feOffset dy="3"/>
<feGaussianBlur stdDeviation="3"/>
<feColorMatrix type="matrix" values="0 0 0 0 0 0 0 0 0 0 0 0 0 0 0 0 0 0 0.102 0"/>
<feBlend mode="normal" in2="BackgroundImageFix" result="effect1_dropShadow_1723_127277"/>
<feBlend mode="normal" in="SourceGraphic" in2="effect1_dropShadow_1723_127277" result="shape"/>
</filter>
<filter id="filter3_d_1723_127277" x="40.7852" y="79.3213" width="129.158" height="141.46" filterUnits="userSpaceOnUse" color-interpolation-filters="sRGB">
<feFlood flood-opacity="0" result="BackgroundImageFix"/>
<feColorMatrix in="SourceAlpha" type="matrix" values="0 0 0 0 0 0 0 0 0 0 0 0 0 0 0 0 0 0 127 0" result="hardAlpha"/>
<feOffset dy="3"/>
<feGaussianBlur stdDeviation="3"/>
<feColorMatrix type="matrix" values="0 0 0 0 0 0 0 0 0 0 0 0 0 0 0 0 0 0 0.102 0"/>
<feBlend mode="normal" in2="BackgroundImageFix" result="effect1_dropShadow_1723_127277"/>
<feBlend mode="normal" in="SourceGraphic" in2="effect1_dropShadow_1723_127277" result="shape"/>
</filter>
</defs>
</svg>
