<svg width="24" height="24" viewBox="0 0 24 24" fill="none" xmlns="http://www.w3.org/2000/svg">
<path d="M19.57 15.64L19.12 15.2C18.88 14.97 18.79 14.89 18.69 14.8L18.61 14.73C18.14 14.27 17.89 14.01 17.77 13.68C17.71 13.5 17.69 13.36 17.68 13.23C17.6 12.47 17.62 11.83 17.64 11.21C17.66 10.76 17.67 10.33 17.65 9.86999C17.62 9.37999 17.59 8.86999 17.4 8.23999C16.81 6.30999 15.27 5.31999 14.8 5.05999C14.62 4.95999 14.28 4.78999 13.81 4.63999C13.68 3.39999 12.93 2.48999 12 2.48999C11.07 2.48999 10.32 3.39999 10.19 4.63999C9.72 4.78999 9.39001 4.95999 9.20001 5.05999C9.12001 5.09999 7.23 6.17999 6.61 8.23999C6.42 8.85999 6.38 9.34999 6.36 9.86999C6.34 10.34 6.35 10.79 6.36 11.26C6.38 11.86 6.4 12.49 6.32 13.24C6.32 13.36 6.30001 13.5 6.24001 13.67C6.12001 14.02 5.85 14.28 5.39 14.73L5.24001 14.87C5.16001 14.94 5.06 15.03 4.88 15.21L4.42 15.66C4 16.1 3.9 16.85 4.1 17.95C4.15 18.19 4.35001 18.36 4.59001 18.36H9.3C9.28 18.49 9.27001 18.62 9.27001 18.76C9.27001 20.27 10.49 21.5 12 21.5C13.51 21.5 14.74 20.27 14.74 18.76C14.74 18.62 14.73 18.49 14.71 18.36H19.41C19.65 18.36 19.86 18.19 19.9 17.95C20.11 16.85 20 16.1 19.57 15.64ZM12 3.49998C12.3 3.49998 12.61 3.86999 12.75 4.41999C12.52 4.38999 12.27 4.36999 12.01 4.36999C11.75 4.36999 11.5 4.38999 11.26 4.41999C11.4 3.86999 11.72 3.49998 12.01 3.49998H12ZM12 20.5C11.04 20.5 10.27 19.72 10.27 18.76C10.27 18.62 10.29 18.49 10.32 18.36H13.68C13.72 18.49 13.74 18.62 13.74 18.76C13.74 19.72 12.96 20.5 12 20.5ZM18.98 17.36H5.02001C4.94001 16.61 5.11001 16.39 5.13001 16.36L5.58 15.92C5.75 15.76 5.84001 15.68 5.91001 15.62C5.98001 15.56 6.03 15.51 6.1 15.44C6.6 14.95 6.99 14.57 7.18 14C7.28 13.73 7.31 13.51 7.32 13.32C7.4 12.52 7.38 11.87 7.36 11.23C7.35 10.79 7.34 10.37 7.36 9.91999C7.38 9.42999 7.41001 9.03999 7.56001 8.52999C8.07001 6.85999 9.67 5.93999 9.69 5.92999C9.78 5.87999 9.97001 5.77998 10.23 5.67999C10.48 5.58999 10.81 5.48998 11.19 5.42999C11.43 5.38999 11.71 5.35999 12 5.35999C12.29 5.35999 12.56 5.38999 12.8 5.42999C13.18 5.48998 13.51 5.58999 13.77 5.67999C14.01 5.77998 14.2 5.86999 14.31 5.92999C14.58 6.07999 15.94 6.91999 16.43 8.52999C16.58 9.00999 16.61 9.37998 16.64 9.92999C16.66 10.35 16.65 10.76 16.63 11.18C16.61 11.83 16.59 12.51 16.68 13.35C16.7 13.53 16.73 13.74 16.81 14C17.02 14.59 17.41 14.96 17.91 15.45L18.01 15.54C18.1 15.63 18.18 15.7 18.41 15.92L18.85 16.35C18.85 16.35 19.05 16.61 18.97 17.36H18.98Z" fill="#8798A1"/>
</svg>
