<svg width="24" height="24" viewBox="0 0 24 24" fill="none" xmlns="http://www.w3.org/2000/svg">
<path d="M16.5761 20.4999C17.3844 20.4999 18.0421 19.8602 18.0421 19.0739V12.9149H20.446C20.6107 12.9149 20.7406 12.8623 20.8432 12.7541L20.8477 12.7493C20.968 12.624 21.1226 12.313 20.8456 12.0316L12.7763 3.81638C12.573 3.6126 12.2988 3.5004 12.0041 3.5004C11.7083 3.5004 11.4333 3.61334 11.233 3.81508L3.15167 12.0324C2.94431 12.2431 2.99439 12.468 3.0427 12.5834C3.08444 12.6831 3.21765 12.9149 3.55206 12.9149H5.96607V19.0739C5.96607 19.2369 5.99396 19.3971 6.05112 19.5612C6.06424 19.5866 6.07639 19.6127 6.08746 19.6394C6.09784 19.6644 6.10712 19.6897 6.11533 19.7152C6.18756 19.8479 6.27918 19.9693 6.38782 20.0765C6.66574 20.3495 7.03659 20.4999 7.43204 20.4999H9.08905V16.7759C9.08905 15.6422 10.019 14.7199 11.1621 14.7199H12.846C13.9946 14.7199 14.929 15.6422 14.929 16.7759V20.4999H16.5761ZM16.5761 21.4999H13.929V16.7759C13.929 16.1939 13.4381 15.7199 12.846 15.7199H11.1621C10.57 15.7199 10.0891 16.1939 10.0891 16.7759V21.4999H7.43204C6.76004 21.4999 6.13904 21.2339 5.68704 20.7899C5.46704 20.5729 5.28604 20.3169 5.15604 20.0309C5.16605 20.0209 5.16605 20.0209 5.15604 20.0209C5.03604 19.7249 4.96607 19.4089 4.96607 19.0739V13.9149H3.55206C2.18805 13.9149 1.48706 12.2979 2.43906 11.3309L10.5201 3.1139C11.3321 2.2959 12.6761 2.2959 13.488 3.1139L21.5591 11.3309C22.1901 11.9719 22.1 12.8889 21.5691 13.4419C21.2981 13.7279 20.9171 13.9149 20.446 13.9149H19.0421V19.0739C19.0421 20.4149 17.9391 21.4999 16.5761 21.4999Z" fill="white"/>
</svg>
