<svg width="12" height="12" viewBox="0 0 12 12" fill="none" xmlns="http://www.w3.org/2000/svg">
<path d="M7.85492 4.145C7.80844 4.09814 7.75314 4.06094 7.69221 4.03556C7.63128 4.01017 7.56592 3.9971 7.49992 3.9971C7.43391 3.9971 7.36856 4.01017 7.30763 4.03556C7.2467 4.06094 7.1914 4.09814 7.14492 4.145L5.99992 5.295L4.85492 4.145C4.76077 4.05085 4.63307 3.99796 4.49992 3.99796C4.36677 3.99796 4.23907 4.05085 4.14492 4.145C4.05077 4.23915 3.99787 4.36685 3.99787 4.5C3.99787 4.63315 4.05077 4.76085 4.14492 4.855L5.29492 6L4.14492 7.145C4.09805 7.19148 4.06086 7.24678 4.03547 7.30771C4.01009 7.36864 3.99702 7.434 3.99702 7.5C3.99702 7.56601 4.01009 7.63136 4.03547 7.69229C4.06086 7.75322 4.09805 7.80852 4.14492 7.855C4.1914 7.90187 4.2467 7.93906 4.30763 7.96445C4.36856 7.98983 4.43391 8.0029 4.49992 8.0029C4.56592 8.0029 4.63128 7.98983 4.69221 7.96445C4.75314 7.93906 4.80844 7.90187 4.85492 7.855L5.99992 6.705L7.14492 7.855C7.1914 7.90187 7.2467 7.93906 7.30763 7.96445C7.36856 7.98983 7.43391 8.0029 7.49992 8.0029C7.56592 8.0029 7.63128 7.98983 7.69221 7.96445C7.75314 7.93906 7.80844 7.90187 7.85492 7.855C7.90178 7.80852 7.93898 7.75322 7.96436 7.69229C7.98975 7.63136 8.00282 7.56601 8.00282 7.5C8.00282 7.434 7.98975 7.36864 7.96436 7.30771C7.93898 7.24678 7.90178 7.19148 7.85492 7.145L6.70492 6L7.85492 4.855C7.90178 4.80852 7.93898 4.75322 7.96436 4.69229C7.98975 4.63136 8.00282 4.56601 8.00282 4.5C8.00282 4.434 7.98975 4.36864 7.96436 4.30771C7.93898 4.24678 7.90178 4.19148 7.85492 4.145ZM9.53492 2.465C9.07368 1.98745 8.52196 1.60654 7.91194 1.34449C7.30192 1.08245 6.64582 0.944518 5.98192 0.938749C5.31803 0.93298 4.65963 1.05949 4.04515 1.31089C3.43067 1.5623 2.87241 1.93356 2.40294 2.40303C1.93348 2.87249 1.56221 3.43075 1.31081 4.04523C1.0594 4.65971 0.932896 5.31811 0.938665 5.98201C0.944434 6.6459 1.08237 7.302 1.34441 7.91202C1.60646 8.52204 1.98737 9.07377 2.46492 9.535C2.92615 10.0126 3.47787 10.3935 4.08789 10.6555C4.69791 10.9176 5.35401 11.0555 6.01791 11.0613C6.68181 11.067 7.34021 10.9405 7.95469 10.6891C8.56917 10.4377 9.12743 10.0664 9.59689 9.59698C10.0664 9.12751 10.4376 8.56925 10.689 7.95477C10.9404 7.34029 11.0669 6.68189 11.0612 6.018C11.0554 5.3541 10.9175 4.698 10.6554 4.08798C10.3934 3.47796 10.0125 2.92624 9.53492 2.465ZM8.82992 8.83C8.17594 9.48471 7.31519 9.89241 6.39431 9.98366C5.47344 10.0749 4.54942 9.84403 3.77968 9.33039C3.00994 8.81675 2.4421 8.05211 2.1729 7.16674C1.90371 6.28138 1.94982 5.33007 2.30337 4.47489C2.65693 3.61971 3.29605 2.91358 4.11186 2.47678C4.92767 2.03999 5.86969 1.89957 6.77742 2.07944C7.68515 2.25931 8.50244 2.74835 9.09004 3.46323C9.67764 4.17812 9.99919 5.07462 9.99992 6C10.0017 6.52565 9.89921 7.04642 9.69838 7.53219C9.49755 8.01796 9.20237 8.45908 8.82992 8.83Z" fill="white"/>
</svg>
