<svg width="24" height="24" viewBox="0 0 24 24" fill="none" xmlns="http://www.w3.org/2000/svg">
<path d="M20.5 11.9988C20.4983 10.0326 19.815 8.12777 18.5665 6.60881C17.3179 5.08968 15.5811 4.05047 13.6522 3.66824C11.7233 3.28602 9.7215 3.58442 7.9879 4.5126C6.25431 5.44079 4.89617 6.94133 4.14486 8.75859C3.39356 10.5758 3.29558 12.5974 3.86761 14.4788C4.43965 16.3602 5.64631 17.985 7.28201 19.0765C8.91771 20.168 10.8813 20.6586 12.8381 20.4647C14.7945 20.2709 16.6233 19.4048 18.0128 18.0141C18.8046 17.2256 19.4321 16.2879 19.859 15.2552C20.2859 14.2228 20.5037 13.116 20.5 11.9988ZM20.5 11.9988C20.5 11.9986 20.5 11.9984 20.5 11.9981L20 11.9998L20.5 11.9994C20.5 11.9992 20.5 11.999 20.5 11.9988ZM15.355 8.64194L15.355 8.64195L15.3579 8.64483C15.4048 8.69132 15.442 8.74662 15.4674 8.80755C15.4927 8.86848 15.5058 8.93383 15.5058 8.99984C15.5058 9.06584 15.4927 9.13119 15.4674 9.19212C15.442 9.25305 15.4048 9.30835 15.3579 9.35484L15.3572 9.35551L13.0572 11.6455L12.7014 11.9998L13.0572 12.3542L15.3572 14.6442L15.3579 14.6448C15.4048 14.6913 15.442 14.7466 15.4674 14.8075C15.4927 14.8685 15.5058 14.9338 15.5058 14.9998C15.5058 15.0658 15.4927 15.1312 15.4674 15.1921C15.442 15.2531 15.4048 15.3084 15.3579 15.3548L15.355 15.3577C15.3085 15.4046 15.2532 15.4418 15.1923 15.4672C15.1314 15.4926 15.066 15.5056 15 15.5056C14.934 15.5056 14.8687 15.4926 14.8077 15.4672C14.7468 15.4418 14.6915 15.4046 14.645 15.3577L14.6443 15.3571L12.3543 13.0571L12 12.7012L11.6457 13.0571L9.35569 15.3571L9.35502 15.3577C9.30854 15.4046 9.25324 15.4418 9.19231 15.4672C9.13138 15.4926 9.06602 15.5056 9.00002 15.5056C8.93401 15.5056 8.86866 15.4926 8.80773 15.4672C8.7468 15.4418 8.6915 15.4046 8.64502 15.3577L8.64212 15.3548C8.59525 15.3084 8.55806 15.2531 8.53267 15.1921C8.50729 15.1312 8.49422 15.0658 8.49422 14.9998C8.49422 14.9338 8.50729 14.8685 8.53267 14.8075C8.55806 14.7466 8.59525 14.6913 8.64212 14.6448L8.6428 14.6442L10.9428 12.3542L11.2987 11.9998L10.9428 11.6455L8.64357 9.35628C8.64345 9.35616 8.64333 9.35604 8.64321 9.35592C8.5489 9.26142 8.49593 9.13336 8.49593 8.99984C8.49593 8.86614 8.54904 8.73792 8.64357 8.64339C8.73811 8.54885 8.86632 8.49574 9.00002 8.49574C9.13354 8.49574 9.2616 8.54872 9.35611 8.64303C9.35623 8.64315 9.35635 8.64327 9.35647 8.64339L11.6457 10.9426L12 11.2985L12.3543 10.9426L14.6443 8.64262L14.645 8.64194C14.6915 8.59507 14.7468 8.55788 14.8077 8.53249C14.8687 8.50711 14.934 8.49404 15 8.49404C15.066 8.49404 15.1314 8.50711 15.1923 8.53249C15.2532 8.55788 15.3085 8.59507 15.355 8.64194ZM18.7104 5.27719L18.7164 5.28344L18.7227 5.28948C19.63 6.16582 20.3537 7.2141 20.8516 8.37314C21.3495 9.53217 21.6116 10.7788 21.6225 12.0402C21.6335 13.3016 21.3931 14.5525 20.9155 15.72C20.4378 16.8876 19.7324 17.9483 18.8404 18.8402C17.9484 19.7322 16.8877 20.4376 15.7202 20.9153C14.5527 21.393 13.3018 21.6333 12.0404 21.6224C10.7789 21.6114 9.53236 21.3493 8.37332 20.8514C7.21428 20.3536 6.16601 19.6298 5.28966 18.7225L5.28363 18.7162L5.27737 18.7102C4.37003 17.8338 3.6463 16.7856 3.14841 15.6265C2.65053 14.4675 2.38846 13.2209 2.37749 11.9595C2.36653 10.6981 2.6069 9.44714 3.08457 8.27963C3.56224 7.11211 4.26764 6.05142 5.15962 5.15944C6.0516 4.26746 7.1123 3.56205 8.27981 3.08439C9.44733 2.60672 10.6983 2.36635 11.9597 2.37731C13.2211 2.38827 14.4677 2.65034 15.6267 3.14823C16.7858 3.64611 17.834 4.36984 18.7104 5.27719Z" fill="black" stroke="#8798A1"/>
</svg>
