<svg width="217" height="216" viewBox="0 0 217 216" fill="none" xmlns="http://www.w3.org/2000/svg">
<g filter="url(#filter0_d_1739_36169)">
<path d="M210.419 105.236C210.389 131 200.401 155.756 182.543 174.327C164.685 192.898 140.339 203.847 114.596 204.885C88.8524 205.922 63.7043 196.969 44.4092 179.895C25.1141 162.822 13.1657 138.951 11.0621 113.273C8.95848 87.5947 16.8624 62.0973 33.1215 42.1113C49.3807 22.1254 72.7362 9.19814 98.3052 6.03233C123.874 2.86653 149.677 9.70723 170.32 25.1243C190.962 40.5413 204.846 63.341 209.069 88.7569C209.972 94.2033 210.424 99.7151 210.419 105.236Z" fill="#F4F7FB"/>
</g>
<g filter="url(#filter1_d_1739_36169)">
<path d="M181.06 75.7307V184.372C181.053 186.319 180.276 188.184 178.899 189.561C177.521 190.937 175.655 191.711 173.708 191.716H28.3967C26.4507 191.71 24.5859 190.935 23.2098 189.559C21.8338 188.183 21.0583 186.318 21.0527 184.372V75.7307C21.0583 73.7847 21.8338 71.9199 23.2098 70.5438C24.5859 69.1678 26.4507 68.3923 28.3967 68.3867H173.709C175.656 68.3909 177.522 69.1658 178.899 70.542C180.277 71.9181 181.054 73.7836 181.06 75.7307Z" fill="white"/>
</g>
<path d="M181.06 134.76V184.372C181.053 186.319 180.276 188.184 178.899 189.561C177.521 190.937 175.655 191.712 173.708 191.716H28.3967C26.4507 191.71 24.5859 190.935 23.2098 189.559C21.8338 188.183 21.0583 186.318 21.0527 184.372V167.277L56.9317 138.823C59.4658 136.816 62.6127 135.74 65.8452 135.777C69.0777 135.813 72.1994 136.959 74.6877 139.023L81.4277 144.623C83.9659 146.733 87.1648 147.884 90.4656 147.875C93.7664 147.866 96.959 146.698 99.4857 144.574L136.271 113.688C138.754 111.602 141.881 110.437 145.124 110.389C148.367 110.342 151.527 111.415 154.071 113.427L181.06 134.76Z" fill="#C8D3D9"/>
<path d="M66.8015 119.269C78.394 119.269 87.7915 109.871 87.7915 98.2786C87.7915 86.6861 78.394 77.2886 66.8015 77.2886C55.2091 77.2886 45.8115 86.6861 45.8115 98.2786C45.8115 109.871 55.2091 119.269 66.8015 119.269Z" fill="#F4F7FB"/>
<path d="M119.886 32.8119C118.949 32.8119 118.24 32.353 118.19 31.9413L116.808 20.6664C116.683 19.6469 116.988 18.6362 117.645 17.8938C118.228 17.2356 119.024 16.873 119.886 16.873C120.749 16.873 121.545 17.2358 122.128 17.8945C122.785 18.637 123.09 19.6472 122.965 20.6663L121.583 31.9414C121.532 32.353 120.823 32.8119 119.886 32.8119Z" fill="white"/>
<path d="M119.886 32.1907C120.492 32.1907 120.886 31.9474 120.97 31.8304L122.348 20.5907C122.451 19.748 122.201 18.9154 121.662 18.3062C121.199 17.7826 120.568 17.4941 119.886 17.4941C119.204 17.4941 118.573 17.7823 118.11 18.3055C117.571 18.9148 117.321 19.7479 117.424 20.5908L118.801 31.8302C118.886 31.9474 119.28 32.1907 119.886 32.1907ZM119.886 33.433C118.71 33.433 117.672 32.823 117.573 32.017L116.191 20.7419C115.908 18.427 117.551 16.252 119.886 16.252C122.221 16.252 123.865 18.427 123.581 20.7419L122.199 32.017C122.1 32.823 121.063 33.433 119.886 33.433Z" fill="white"/>
<path d="M119.886 39.3191C121.063 39.3191 122.017 38.365 122.017 37.1881C122.017 36.0112 121.063 35.0571 119.886 35.0571C118.709 35.0571 117.755 36.0112 117.755 37.1881C117.755 38.365 118.709 39.3191 119.886 39.3191Z" fill="white"/>
<path d="M119.886 38.6982C120.72 38.6982 121.396 38.0222 121.396 37.1882C121.396 36.3543 120.72 35.6782 119.886 35.6782C119.052 35.6782 118.376 36.3543 118.376 37.1882C118.376 38.0222 119.052 38.6982 119.886 38.6982Z" stroke="white" stroke-width="1.242" stroke-miterlimit="10" stroke-linecap="round"/>
<path d="M159.019 9.23C161.292 9.23 163.134 7.38765 163.134 5.115C163.134 2.84235 161.292 1 159.019 1C156.747 1 154.904 2.84235 154.904 5.115C154.904 7.38765 156.747 9.23 159.019 9.23Z" stroke="#F4F7FB" stroke-width="1.307" stroke-miterlimit="10"/>
<path d="M8.68713 162.555C12.6133 162.555 15.7961 159.372 15.7961 155.446C15.7961 151.52 12.6133 148.337 8.68713 148.337C4.76093 148.337 1.57812 151.52 1.57812 155.446C1.57812 159.372 4.76093 162.555 8.68713 162.555Z" stroke="#F4F7FB" stroke-width="2.258" stroke-miterlimit="10"/>
<path d="M57.819 21.2119C55.2178 18.6096 51.8411 16.9232 48.198 16.4071C44.5549 15.8909 40.8428 16.5729 37.621 18.3502C34.3993 20.1275 31.8425 22.9039 30.3361 26.2608C28.8296 29.6178 28.4551 33.3735 29.269 36.9619C30.1229 40.712 32.2239 44.0615 35.2283 46.4629C38.2327 48.8642 41.9629 50.1753 45.809 50.1819C46.149 50.1819 46.499 50.1718 46.839 50.1418C50.9813 49.8989 54.8896 48.1407 57.819 45.2019C60.9938 42.0172 62.7766 37.7037 62.7766 33.2069C62.7766 28.71 60.9938 24.3966 57.819 21.2119ZM52.089 39.4718C52.003 39.5633 51.8993 39.6364 51.7841 39.6862C51.6688 39.7361 51.5446 39.7618 51.419 39.7618C51.2934 39.7618 51.1692 39.7361 51.054 39.6862C50.9387 39.6364 50.835 39.5633 50.749 39.4718L45.749 34.4818L42.279 37.9519L40.809 39.4218C40.6511 39.5841 40.4354 39.6776 40.209 39.6819C40.0965 39.6816 39.9854 39.6584 39.8822 39.6137C39.779 39.569 39.6861 39.5037 39.609 39.4218C39.5283 39.3431 39.4641 39.249 39.4203 39.1451C39.3765 39.0412 39.3539 38.9296 39.3539 38.8169C39.3539 38.7041 39.3765 38.5924 39.4203 38.4885C39.4641 38.3846 39.5283 38.2906 39.609 38.2119L44.549 33.2718L40.349 29.0919L39.529 28.2818C39.3557 28.1018 39.2589 27.8616 39.2589 27.6118C39.2589 27.3619 39.3557 27.1219 39.529 26.9419C39.6158 26.8517 39.7198 26.78 39.835 26.731C39.9501 26.6821 40.0739 26.6568 40.199 26.6568C40.3241 26.6568 40.4479 26.6821 40.5631 26.731C40.6782 26.78 40.7823 26.8517 40.869 26.9419L43.849 29.9218L45.869 31.9319L46.599 31.2019L50.799 26.9918C50.8797 26.9109 50.9756 26.8468 51.0811 26.8031C51.1866 26.7593 51.2998 26.7368 51.414 26.7368C51.5282 26.7368 51.6414 26.7593 51.7469 26.8031C51.8524 26.8468 51.9483 26.9109 52.029 26.9918C52.1831 27.1556 52.2689 27.3719 52.2689 27.5968C52.2689 27.8216 52.1831 28.0381 52.029 28.2019L48.079 32.1718L47.089 33.1618L52.089 38.1518C52.2576 38.3302 52.3515 38.5664 52.3515 38.8119C52.3515 39.0573 52.2576 39.2934 52.089 39.4718Z" fill="#C8D3D9"/>
<path d="M83.0855 55.7567C82.9428 55.7571 82.8017 55.7258 82.6725 55.6648C82.5859 55.6335 82.5077 55.5827 82.4438 55.5163C82.38 55.4499 82.3323 55.3697 82.3044 55.2819C82.2766 55.1941 82.2693 55.101 82.2832 55.0099C82.2971 54.9189 82.3318 54.8322 82.3846 54.7567L85.3225 50.7088C85.456 50.5511 85.6381 50.4424 85.8402 50.3998C86.0424 50.3572 86.2528 50.3833 86.4385 50.4738C86.5251 50.5051 86.6034 50.5558 86.6673 50.6222C86.7311 50.6886 86.7788 50.7689 86.8066 50.8567C86.8345 50.9445 86.8417 51.0375 86.8279 51.1286C86.814 51.2196 86.7793 51.3062 86.7265 51.3817L83.7885 55.4297C83.7048 55.5351 83.5977 55.6195 83.4757 55.6763C83.3537 55.7331 83.2201 55.7606 83.0855 55.7567Z" fill="white"/>
<path d="M86.1435 55.7568C86.0003 55.7571 85.8589 55.7253 85.7295 55.6638C85.6431 55.6323 85.565 55.5813 85.5014 55.5148C85.4378 55.4483 85.3903 55.3681 85.3627 55.2803C85.335 55.1926 85.3279 55.0996 85.342 55.0086C85.356 54.9177 85.3907 54.8312 85.4435 54.7558L88.3835 50.7078C88.5166 50.5496 88.6989 50.4406 88.9013 50.3984C89.1037 50.3561 89.3143 50.3831 89.4996 50.4748C89.586 50.5063 89.6641 50.5572 89.7277 50.6237C89.7913 50.6902 89.8388 50.7706 89.8664 50.8583C89.8941 50.9461 89.9012 51.039 89.8871 51.13C89.8731 51.2209 89.8384 51.3074 89.7856 51.3828L86.8466 55.4309C86.7627 55.536 86.6555 55.6201 86.5335 55.6767C86.4115 55.7333 86.278 55.7607 86.1435 55.7568Z" fill="white"/>
<path d="M89.5605 55.7568C89.417 55.7572 89.2752 55.7254 89.1456 55.6638C89.0591 55.6323 88.981 55.5813 88.9174 55.5148C88.8538 55.4483 88.8063 55.3681 88.7787 55.2803C88.751 55.1926 88.744 55.0996 88.758 55.0086C88.772 54.9177 88.8067 54.8312 88.8596 54.7558L91.7996 50.7078C91.9326 50.5496 92.1149 50.4406 92.3173 50.3984C92.5196 50.3561 92.7303 50.3831 92.9156 50.4748C93.002 50.5063 93.0801 50.5572 93.1437 50.6237C93.2073 50.6902 93.2548 50.7706 93.2824 50.8583C93.31 50.9461 93.3172 51.039 93.3032 51.13C93.2891 51.2209 93.2543 51.3074 93.2015 51.3828L90.2626 55.4309C90.1788 55.5359 90.0718 55.6199 89.9499 55.6765C89.8281 55.733 89.6948 55.7605 89.5605 55.7568Z" fill="white"/>
<g filter="url(#filter2_d_1739_36169)">
<path d="M135.2 64.53C135.561 60.0924 136.994 55.8087 139.376 52.0471C141.757 48.2854 145.017 45.1582 148.874 42.9343C152.731 40.7103 157.07 39.4562 161.519 39.2795C165.967 39.1028 170.392 40.0088 174.414 41.9199C178.435 43.8309 181.932 46.6898 184.605 50.2507C187.277 53.8116 189.045 57.9681 189.757 62.3631C190.468 66.7581 190.102 71.2601 188.689 75.4824C187.277 79.7046 184.86 83.5208 181.647 86.603C181.614 86.6432 181.578 86.6806 181.538 86.7149C177.503 90.5577 172.394 93.0829 166.89 93.9553C161.386 94.8277 155.746 94.0061 150.72 91.5997C145.694 89.1932 141.518 85.3156 138.746 80.481C135.974 75.6465 134.738 70.0835 135.2 64.53Z" fill="#C8D3D9" stroke="#C8D3D9" stroke-width="0.5" stroke-linecap="round" stroke-linejoin="round"/>
</g>
<path d="M146.716 81.924C149.707 85.0642 153.561 87.2472 157.792 88.1969C162.023 89.1467 166.44 88.8207 170.486 87.2599C174.531 85.6992 178.023 82.9739 180.52 79.4286C183.017 75.8834 184.406 71.6773 184.513 67.3424C184.619 63.0076 183.438 58.7385 181.118 55.075C178.798 51.4115 175.444 48.5182 171.48 46.7608C167.516 45.0034 163.12 44.4609 158.847 45.2019C154.575 45.943 150.618 47.9343 147.477 50.924C145.391 52.9092 143.717 55.2859 142.55 57.9184C141.382 60.5509 140.745 63.3875 140.675 66.2663C140.604 69.1451 141.101 72.0096 142.138 74.6962C143.174 77.3828 144.73 79.8388 146.716 81.924Z" fill="#F4F7FB" stroke="#C8D3D9" stroke-width="0.5" stroke-linecap="round" stroke-linejoin="round"/>
<g filter="url(#filter3_d_1739_36169)">
<path d="M206.918 113.974L207.533 113.385C209.128 111.855 209.182 109.322 207.653 107.726L191.43 90.7984C189.901 89.2027 187.368 89.1488 185.772 90.6781L185.157 91.2673C183.561 92.7966 183.507 95.3299 185.037 96.9256L201.259 113.854C202.789 115.449 205.322 115.503 206.918 113.974Z" fill="#C8D3D9" stroke="#C8D3D9" stroke-width="0.498623" stroke-linecap="round" stroke-linejoin="round"/>
</g>
<path d="M182.496 91.9228L186.701 87.9218C187.315 87.3369 187.339 86.3646 186.754 85.75C186.17 85.1354 185.197 85.1113 184.583 85.6962L180.378 89.6972C179.764 90.2821 179.74 91.2544 180.325 91.869C180.91 92.4836 181.882 92.5077 182.496 91.9228Z" fill="#C8D3D9" stroke="#C8D3D9" stroke-width="0.499724" stroke-linecap="round" stroke-linejoin="round"/>
<defs>
<filter id="filter0_d_1739_36169" x="4.72852" y="4.27539" width="211.69" height="211.69" filterUnits="userSpaceOnUse" color-interpolation-filters="sRGB">
<feFlood flood-opacity="0" result="BackgroundImageFix"/>
<feColorMatrix in="SourceAlpha" type="matrix" values="0 0 0 0 0 0 0 0 0 0 0 0 0 0 0 0 0 0 127 0" result="hardAlpha"/>
<feOffset dy="5"/>
<feGaussianBlur stdDeviation="3"/>
<feColorMatrix type="matrix" values="0 0 0 0 0.784314 0 0 0 0 0.827451 0 0 0 0 0.85098 0 0 0 0.302 0"/>
<feBlend mode="normal" in2="BackgroundImageFix" result="effect1_dropShadow_1739_36169"/>
<feBlend mode="normal" in="SourceGraphic" in2="effect1_dropShadow_1739_36169" result="shape"/>
</filter>
<filter id="filter1_d_1739_36169" x="13.0527" y="65.3867" width="172.007" height="135.329" filterUnits="userSpaceOnUse" color-interpolation-filters="sRGB">
<feFlood flood-opacity="0" result="BackgroundImageFix"/>
<feColorMatrix in="SourceAlpha" type="matrix" values="0 0 0 0 0 0 0 0 0 0 0 0 0 0 0 0 0 0 127 0" result="hardAlpha"/>
<feOffset dx="-2" dy="3"/>
<feGaussianBlur stdDeviation="3"/>
<feColorMatrix type="matrix" values="0 0 0 0 0.784314 0 0 0 0 0.827451 0 0 0 0 0.85098 0 0 0 0.502 0"/>
<feBlend mode="normal" in2="BackgroundImageFix" result="effect1_dropShadow_1739_36169"/>
<feBlend mode="normal" in="SourceGraphic" in2="effect1_dropShadow_1739_36169" result="shape"/>
</filter>
<filter id="filter2_d_1739_36169" x="128.855" y="36.0078" width="67.5045" height="67.5364" filterUnits="userSpaceOnUse" color-interpolation-filters="sRGB">
<feFlood flood-opacity="0" result="BackgroundImageFix"/>
<feColorMatrix in="SourceAlpha" type="matrix" values="0 0 0 0 0 0 0 0 0 0 0 0 0 0 0 0 0 0 127 0" result="hardAlpha"/>
<feOffset dy="3"/>
<feGaussianBlur stdDeviation="3"/>
<feColorMatrix type="matrix" values="0 0 0 0 0.784314 0 0 0 0 0.827451 0 0 0 0 0.85098 0 0 0 0.302 0"/>
<feBlend mode="normal" in2="BackgroundImageFix" result="effect1_dropShadow_1739_36169"/>
<feBlend mode="normal" in="SourceGraphic" in2="effect1_dropShadow_1739_36169" result="shape"/>
</filter>
<filter id="filter3_d_1739_36169" x="177.675" y="86.3162" width="37.34" height="38.0198" filterUnits="userSpaceOnUse" color-interpolation-filters="sRGB">
<feFlood flood-opacity="0" result="BackgroundImageFix"/>
<feColorMatrix in="SourceAlpha" type="matrix" values="0 0 0 0 0 0 0 0 0 0 0 0 0 0 0 0 0 0 127 0" result="hardAlpha"/>
<feOffset dy="3"/>
<feGaussianBlur stdDeviation="3"/>
<feColorMatrix type="matrix" values="0 0 0 0 0.784314 0 0 0 0 0.827451 0 0 0 0 0.85098 0 0 0 0.302 0"/>
<feBlend mode="normal" in2="BackgroundImageFix" result="effect1_dropShadow_1739_36169"/>
<feBlend mode="normal" in="SourceGraphic" in2="effect1_dropShadow_1739_36169" result="shape"/>
</filter>
</defs>
</svg>
