<svg width="24" height="24" viewBox="0 0 24 24" fill="none" xmlns="http://www.w3.org/2000/svg">
<path d="M2.5 17.93C2.5 16.7503 2.98154 15.668 3.75887 14.8882C3.81092 14.839 3.86246 14.791 3.91408 14.7444C3.86375 14.7908 3.81468 14.8382 3.76645 14.8864C2.95365 15.6992 2.5 16.786 2.5 17.93ZM2.5 17.93C2.5 19.6821 3.92437 21.1 5.68 21.1C3.92508 21.1 2.5 19.6774 2.5 17.93ZM4.31553 14.4204L4.31561 14.4206L4.32501 14.4137C4.76389 14.093 5.27258 13.86 5.82214 13.7323C5.28736 13.8568 4.78251 14.084 4.33367 14.41C4.28057 14.4457 4.2293 14.4825 4.17958 14.5205C4.22403 14.486 4.26923 14.4527 4.31553 14.4204Z" fill="#354752" stroke="#8798A1"/>
<path d="M13.9299 11.28C14.2599 11.42 15.6199 11.97 17.0299 11.39C18.7099 10.69 20.0399 8.56003 19.2199 6.49003C18.4599 4.58003 16.2299 3.62003 14.2799 4.42003C14.5599 4.87003 15.3199 6.22003 15.1799 8.06003C15.0499 9.72003 14.2699 10.85 13.9399 11.28H13.9299Z" stroke="#8798A1" stroke-linecap="round" stroke-linejoin="round"/>
<path d="M15.9201 20.84H18.6901C20.5201 20.85 22.0101 19.5 22.0101 17.82C22.0101 16.73 21.5301 15.73 20.7301 15.02C19.9501 14.3 18.8601 13.85 17.6701 13.85H15.3601C15.5901 14.03 17.1101 15.29 17.1801 17.44C17.2401 19.32 16.1601 20.57 15.9201 20.83V20.84Z" stroke="#8798A1" stroke-linecap="round" stroke-linejoin="round"/>
<path d="M8.98001 11.94C11.4487 11.94 13.45 9.93871 13.45 7.47C13.45 5.00129 11.4487 3 8.98001 3C6.5113 3 4.51001 5.00129 4.51001 7.47C4.51001 9.93871 6.5113 11.94 8.98001 11.94Z" stroke="#8798A1" stroke-miterlimit="10"/>
</svg>
