<svg width="24" height="24" viewBox="0 0 24 24" fill="none" xmlns="http://www.w3.org/2000/svg">
<path d="M12.3525 6.75649L13.4198 5.68924C13.4201 5.68895 13.4204 5.68866 13.4207 5.68837C14.3143 4.80405 15.5207 4.308 16.778 4.308C18.0343 4.308 19.2399 4.80332 20.1334 5.68643C21.0101 6.58379 21.5007 7.78881 21.5001 9.04349C21.4994 10.2987 21.0071 11.5036 20.1287 12.4002C20.1281 12.4007 20.1276 12.4013 20.127 12.4019L13.3986 19.1293C13.0232 19.4955 12.5195 19.7005 11.995 19.7005C11.4707 19.7005 10.9672 19.4956 10.5919 19.1297L6.68444 15.2023L6.68354 15.2014L3.88355 12.4014L3.88353 12.4014C3.44269 11.9606 3.09298 11.4373 2.85438 10.8614C2.61578 10.2855 2.49296 9.66817 2.49292 9.04477C2.49288 8.42136 2.61561 7.80407 2.85413 7.22811C3.09266 6.65216 3.44231 6.12881 3.88309 5.68797C4.32387 5.24713 4.84714 4.89743 5.42306 4.65883C5.99898 4.42023 6.61629 4.29741 7.23969 4.29736C7.86308 4.29732 8.48038 4.42007 9.05634 4.65859C9.6316 4.89683 10.1544 5.24589 10.5949 5.68589L11.6421 6.75313L11.9956 7.1134L12.3525 6.75649Z" stroke="#8798A1"/>
<path d="M13.0801 19.3833C13.1927 19.3109 13.2987 19.2267 13.3964 19.1314C13.2978 19.2275 13.1918 19.3115 13.0801 19.3833ZM7.15611 4.30084C7.20936 4.29995 7.26262 4.29995 7.31587 4.30084C7.28928 4.3004 7.26265 4.30019 7.23599 4.30019C7.20933 4.30019 7.1827 4.3004 7.15611 4.30084ZM3.8828 5.68125C3.90968 5.65442 3.9368 5.62798 3.96417 5.60194C3.93678 5.62801 3.90966 5.65445 3.8828 5.68125L3.8828 5.68125ZM3.88119 5.68285C3.88125 5.68279 3.88131 5.68273 3.88137 5.68267L3.87879 5.6853C3.85599 5.70858 3.83345 5.73205 3.81118 5.75571C3.83422 5.73124 3.85756 5.70695 3.88119 5.68285ZM20.1312 5.68529C20.1315 5.68557 20.1318 5.68586 20.1321 5.68614L20.1312 5.68529ZM17.5661 4.36842C18.5027 4.5219 19.4007 4.95506 20.1298 5.68379L17.5661 4.36842Z" fill="#BF283A" stroke="#8798A1"/>
</svg>
