<svg width="24" height="24" viewBox="0 0 24 24" fill="none" xmlns="http://www.w3.org/2000/svg">
<path d="M9.057 10.6461L8.20032 11.5002H9.41002H17C17.1326 11.5002 17.2598 11.5529 17.3536 11.6466C17.4473 11.7404 17.5 11.8676 17.5 12.0002C17.5 12.1328 17.4473 12.26 17.3536 12.3537C17.2598 12.4475 17.1326 12.5002 17 12.5002H9.41002H8.20032L9.057 13.3543L12.357 16.6443L12.3579 16.6452C12.4048 16.6917 12.442 16.747 12.4674 16.8079C12.4927 16.8688 12.5058 16.9342 12.5058 17.0002C12.5058 17.0662 12.4927 17.1315 12.4674 17.1925C12.442 17.2534 12.4048 17.3087 12.3579 17.3552L12.3579 17.3552L12.355 17.3581C12.3085 17.405 12.2532 17.4421 12.1923 17.4675C12.1314 17.4929 12.066 17.506 12 17.506C11.934 17.506 11.8687 17.4929 11.8077 17.4675C11.7468 17.4421 11.6915 17.405 11.645 17.3581L11.6436 17.3566L6.64809 12.3612C6.60406 12.3143 6.56946 12.2594 6.5462 12.1994L6.5463 12.1994L6.54251 12.1902C6.4925 12.0685 6.4925 11.9319 6.54251 11.8102L6.5426 11.8102L6.5462 11.8009C6.56946 11.741 6.60406 11.6861 6.64809 11.6392L11.6436 6.64374L11.2919 6.29202L11.6436 6.64374C11.7381 6.5492 11.8663 6.49609 12 6.49609C12.1337 6.49609 12.2619 6.5492 12.3565 6.64374C12.451 6.73827 12.5041 6.86649 12.5041 7.00019C12.5041 7.1338 12.4511 7.26195 12.3566 7.35647C12.3566 7.35653 12.3565 7.35658 12.3565 7.35663L9.057 10.6461Z" fill="black" stroke="#8798A1"/>
</svg>
