<svg width="24" height="24" viewBox="0 0 24 24" fill="none" xmlns="http://www.w3.org/2000/svg">
<path d="M5.69704 21C5.63153 20.9996 5.56665 20.9868 5.506 20.962C5.41456 20.9242 5.33639 20.8601 5.28139 20.7779C5.22638 20.6957 5.19705 20.5989 5.19704 20.5V17.21C4.52241 16.7903 3.96622 16.2053 3.58119 15.5103C3.19616 14.8153 2.99512 14.0335 2.99708 13.239V7.73099C2.99629 6.4786 3.49231 5.27708 4.37648 4.39011C5.26064 3.50313 6.46064 3.00318 7.71303 3H16.28C17.5325 3.00318 18.7326 3.5031 19.617 4.39005C20.5013 5.27699 20.9976 6.47851 20.9971 7.73099V13.239C20.9958 14.4896 20.4984 15.6886 19.614 16.573C18.7297 17.4573 17.5307 17.9547 16.28 17.956H8.91701L6.04909 20.856C5.9553 20.9485 5.82876 21.0002 5.69704 21ZM7.71608 4C6.72883 4.00291 5.783 4.3974 5.08632 5.09689C4.38963 5.79639 3.99895 6.74374 4.00001 7.73099V13.239C3.99773 13.9038 4.17629 14.5567 4.51662 15.1278C4.85694 15.6989 5.34623 16.1666 5.93202 16.481C6.01186 16.5235 6.07871 16.5869 6.12538 16.6644C6.17205 16.7419 6.19679 16.8305 6.19704 16.921V19.284L8.35609 17.104C8.40257 17.0571 8.45776 17.0199 8.51869 16.9945C8.57962 16.9691 8.64506 16.956 8.71107 16.956H16.2831C17.2686 16.9549 18.2133 16.563 18.9102 15.8661C19.607 15.1693 19.999 14.2245 20 13.239V7.73099C20.0011 6.74356 19.6102 5.79608 18.9133 5.09656C18.2164 4.39703 17.2705 4.00265 16.2831 4H7.71608Z" fill="#8798A1"/>
<path d="M16.6021 10.895H7.40198C7.26937 10.895 7.14223 10.8423 7.04846 10.7485C6.95469 10.6548 6.90198 10.5276 6.90198 10.395C6.90198 10.2624 6.95469 10.1352 7.04846 10.0414C7.14223 9.94767 7.26937 9.89499 7.40198 9.89499H16.6021C16.7347 9.89499 16.8618 9.94767 16.9556 10.0414C17.0493 10.1352 17.1021 10.2624 17.1021 10.395C17.1021 10.5276 17.0493 10.6548 16.9556 10.7485C16.8618 10.8423 16.7347 10.895 16.6021 10.895Z" fill="#8798A1"/>
<path d="M16.6021 7.96298H7.40198C7.26937 7.96298 7.14223 7.91033 7.04846 7.81656C6.95469 7.72279 6.90198 7.59559 6.90198 7.46298C6.90198 7.33037 6.95469 7.2032 7.04846 7.10944C7.14223 7.01567 7.26937 6.96298 7.40198 6.96298H16.6021C16.7347 6.96298 16.8618 7.01567 16.9556 7.10944C17.0493 7.2032 17.1021 7.33037 17.1021 7.46298C17.1021 7.59559 17.0493 7.72279 16.9556 7.81656C16.8618 7.91033 16.7347 7.96298 16.6021 7.96298Z" fill="#8798A1"/>
<path d="M11.3781 13.836H7.39697C7.26436 13.836 7.13723 13.7833 7.04346 13.6895C6.94969 13.5958 6.89697 13.4686 6.89697 13.336C6.89697 13.2034 6.94969 13.0762 7.04346 12.9825C7.13723 12.8887 7.26436 12.836 7.39697 12.836H11.3781C11.5107 12.836 11.6378 12.8887 11.7316 12.9825C11.8253 13.0762 11.8781 13.2034 11.8781 13.336C11.8781 13.4686 11.8253 13.5958 11.7316 13.6895C11.6378 13.7833 11.5107 13.836 11.3781 13.836Z" fill="#8798A1"/>
</svg>
